<svg xmlns="http://www.w3.org/2000/svg" xmlns:xlink="http://www.w3.org/1999/xlink" width="1200" zoomAndPan="magnify" viewBox="0 0 900 899.99999" height="1200" preserveAspectRatio="xMidYMid meet" version="1.0"><rect x="-90" width="1080" fill="#ffffff" y="-89.999999" height="1079.999988" fill-opacity="1"/><rect x="-90" width="1080" fill="#ffffff" y="-89.999999" height="1079.999988" fill-opacity="1"/><path stroke-linecap="butt" transform="matrix(0.749577, 0.0251869, -0.0251869, 0.749577, 365.620973, 194.21106)" fill="none" stroke-linejoin="miter" d="M 1.03454 40.399341 C 85.962024 -10.799327 170.890033 -10.802468 255.824124 40.400155 " stroke="#000000" stroke-width="4" stroke-opacity="1" stroke-miterlimit="4"/><path stroke-linecap="butt" transform="matrix(0.11514, -0.741109, 0.741109, 0.11514, 272.815596, 526.40536)" fill="none" stroke-linejoin="miter" d="M 0.818131 53.414936 C 153.731524 -15.138567 289.118013 -15.136574 406.992237 53.41337 " stroke="#000000" stroke-width="4" stroke-opacity="1" stroke-miterlimit="4"/><path stroke-linecap="butt" transform="matrix(-0.0582035, 0.747738, -0.747738, -0.0582035, 617.161797, 300.689008)" fill="none" stroke-linejoin="miter" d="M 0.734419 40.400368 C 130.58495 -10.799801 260.434983 -10.798641 390.289306 40.398253 " stroke="#000000" stroke-width="4" stroke-opacity="1" stroke-miterlimit="4"/><path stroke-linecap="butt" transform="matrix(0.410622, -0.627606, 0.627606, 0.410622, 190.026235, 437.187261)" fill="none" stroke-linejoin="miter" d="M 0.775642 40.398719 C 122.282622 -10.798523 243.786743 -10.801119 365.293709 40.399649 " stroke="#000000" stroke-width="4" stroke-opacity="1" stroke-miterlimit="4"/><path stroke-linecap="butt" transform="matrix(0.748549, 0.046631, -0.046631, 0.748549, 187.93482, 510.201545)" fill="none" stroke-linejoin="miter" d="M 1.037094 1.930945 C 34.483315 22.224032 89.146193 22.221212 165.01598 1.933527 " stroke="#000000" stroke-width="4" stroke-opacity="1" stroke-miterlimit="4"/><path stroke-linecap="butt" transform="matrix(-0.459917, -0.592432, 0.592432, -0.459917, 417.186247, 705.777343)" fill="none" stroke-linejoin="miter" d="M 1.238915 31.868019 C 51.739559 -7.957956 140.889354 -7.955379 268.68007 31.869362 " stroke="#000000" stroke-width="4" stroke-opacity="1" stroke-miterlimit="4"/><path stroke-linecap="butt" transform="matrix(-0.52318, 0.537385, -0.537385, -0.52318, 574.517615, 599.583325)" fill="none" stroke-linejoin="miter" d="M 0.569432 18.581307 C 107.921383 -2.193999 166.038234 -2.192696 174.923718 18.581585 " stroke="#000000" stroke-width="6" stroke-opacity="1" stroke-miterlimit="4"/><path stroke-linecap="butt" transform="matrix(-0.257521, 0.704403, -0.704403, -0.257521, 228.405257, 418.465894)" fill="none" stroke-linejoin="miter" d="M 0.160636 5.934527 C 64.466135 0.686483 109.390733 0.688307 134.937535 5.933318 " stroke="#000000" stroke-width="4" stroke-opacity="1" stroke-miterlimit="4"/><path stroke-linecap="butt" transform="matrix(0.717476, -0.218467, 0.218467, 0.717476, 475.848388, 439.231989)" fill="none" stroke-linejoin="miter" d="M 1.432406 33.198626 C 41.882125 -8.400895 82.323696 -8.402 122.767083 33.198347 " stroke="#000000" stroke-width="4" stroke-opacity="1" stroke-miterlimit="4"/><path stroke-linecap="butt" transform="matrix(0.739114, -0.127322, 0.127322, 0.739114, 331.735711, 450.644348)" fill="none" stroke-linejoin="miter" d="M 1.525173 37.094467 C 41.132493 -9.699437 80.738682 -9.699735 120.343741 37.093574 " stroke="#000000" stroke-width="4" stroke-opacity="1" stroke-miterlimit="4"/><path stroke-linecap="butt" transform="matrix(0.739114, -0.127322, 0.127322, 0.739114, 329.65985, 445.878021)" fill="none" stroke-linejoin="miter" d="M 1.528056 37.09063 C 41.134491 -9.698142 80.74068 -9.69844 120.345739 37.094869 " stroke="#000000" stroke-width="4" stroke-opacity="1" stroke-miterlimit="4"/><path stroke-linecap="butt" transform="matrix(0.748346, 0.0497779, -0.0497779, 0.748346, 343.130348, 431.113941)" fill="none" stroke-linejoin="miter" d="M 1.547951 28.636609 C 30.536124 -6.876074 66.38052 -6.880094 109.071435 28.635633 " stroke="#000000" stroke-width="4" stroke-opacity="1" stroke-miterlimit="4"/><path stroke-linecap="butt" transform="matrix(0.746998, -0.0670312, 0.0670312, 0.746998, 485.708835, 422.337886)" fill="none" stroke-linejoin="miter" d="M 1.53307 28.634433 C 31.274188 -6.880839 68.051534 -6.880321 111.854734 28.635056 " stroke="#000000" stroke-width="4" stroke-opacity="1" stroke-miterlimit="4"/><path stroke-linecap="butt" transform="matrix(-0.739775, 0.123423, -0.123423, -0.739775, 530.515225, 463.378652)" fill="none" stroke-linejoin="miter" d="M 0.507756 7.397618 C 27.904514 0.198622 45.804312 0.201622 54.213998 7.3972 " stroke="#000000" stroke-width="4" stroke-opacity="1" stroke-miterlimit="4"/><path stroke-linecap="butt" transform="matrix(-0.742636, 0.104842, -0.104842, -0.742636, 424.518439, 477.150379)" fill="none" stroke-linejoin="miter" d="M 1.183876 12.84104 C 20.866262 -1.611982 53.041871 -1.614195 97.720291 12.841014 " stroke="#000000" stroke-width="4" stroke-opacity="1" stroke-miterlimit="4"/><path stroke-linecap="butt" transform="matrix(-0.100695, 0.74321, -0.74321, -0.100695, 491.499507, 463.435196)" fill="none" stroke-linejoin="miter" d="M 1.849997 1.877335 C 10.612863 23.416685 44.476797 23.417009 103.457282 1.876209 " stroke="#000000" stroke-width="4" stroke-opacity="1" stroke-miterlimit="4"/><path stroke-linecap="butt" transform="matrix(0.741021, -0.115705, 0.115705, 0.741021, 430.748214, 621.935483)" fill="none" stroke-linejoin="miter" d="M 1.286981 9.328539 C 12.902492 -0.444419 36.001778 -0.443312 70.579693 9.331055 " stroke="#000000" stroke-width="4" stroke-opacity="1" stroke-miterlimit="4"/><path stroke-linecap="butt" transform="matrix(-0.7419, 0.10993, -0.10993, -0.7419, 485.239587, 626.117219)" fill="none" stroke-linejoin="miter" d="M 0.405877 7.39987 C 35.222431 0.201344 57.979073 0.198286 68.66397 7.399472 " stroke="#000000" stroke-width="4" stroke-opacity="1" stroke-miterlimit="4"/><path stroke-linecap="butt" transform="matrix(-0.739142, 0.127157, -0.127157, -0.739142, 473.26834, 685.346696)" fill="none" stroke-linejoin="miter" d="M -0.00237815 2.001247 C 34.603238 1.99855 51.450928 2.00082 50.542455 1.997793 " stroke="#000000" stroke-width="4" stroke-opacity="1" stroke-miterlimit="4"/><path stroke-linecap="butt" transform="matrix(-0.715367, -0.225276, 0.225276, -0.715367, 465.37594, 594.028813)" fill="none" stroke-linejoin="miter" d="M 1.634501 11.740652 C 10.808749 -1.244839 28.849455 -1.247136 55.753215 11.740293 " stroke="#000000" stroke-width="4" stroke-opacity="1" stroke-miterlimit="4"/><path stroke-linecap="butt" transform="matrix(-0.749258, -0.0333556, 0.0333556, -0.749258, 645.652939, 511.849985)" fill="none" stroke-linejoin="miter" d="M 0.722786 6.263616 C 15.406369 0.578909 37.443759 0.57798 66.829754 6.261061 " stroke="#000000" stroke-width="4" stroke-opacity="1" stroke-miterlimit="4"/><path stroke-linecap="butt" transform="matrix(-0.667158, 0.342636, -0.342636, -0.667158, 671.521074, 495.520362)" fill="none" stroke-linejoin="miter" d="M 0.140471 1.999701 C -1.511064 2.000497 11.458909 1.998502 39.040998 2.000603 " stroke="#000000" stroke-width="4" stroke-opacity="1" stroke-miterlimit="4"/><path stroke-linecap="butt" transform="matrix(0.74418, -0.0932562, 0.0932562, 0.74418, 592.008382, 494.04549)" fill="none" stroke-linejoin="miter" d="M 1.376958 16.735227 C 22.131722 -2.909463 53.421425 -2.909474 95.246067 16.735192 " stroke="#000000" stroke-width="4" stroke-opacity="1" stroke-miterlimit="4"/><path stroke-linecap="butt" transform="matrix(-0.198385, 0.723287, -0.723287, -0.198385, 487.740219, 540.047224)" fill="none" stroke-linejoin="miter" d="M 1.014031 11.47646 C 22.564553 -1.158326 44.112793 -1.160263 65.665152 11.474297 " stroke="#000000" stroke-width="4" stroke-opacity="1" stroke-miterlimit="4"/><path stroke-linecap="butt" transform="matrix(-0.746077, 0.0766106, -0.0766106, -0.746077, 474.137764, 658.568362)" fill="none" stroke-linejoin="miter" d="M 2.012732 6.722533 C 1.622638 0.425791 12.041539 0.427565 33.264786 6.722142 " stroke="#000000" stroke-width="4" stroke-opacity="1" stroke-miterlimit="4"/><path stroke-linecap="butt" transform="matrix(0.24799, 0.707814, -0.707814, 0.24799, 615.305901, 242.406994)" fill="none" stroke-linejoin="miter" d="M 0.822264 40.40008 C 114.632867 -10.801169 228.445236 -10.798834 342.261096 40.402171 " stroke="#000000" stroke-width="4" stroke-opacity="1" stroke-miterlimit="4"/><path stroke-linecap="butt" transform="matrix(0.291603, 0.69099, -0.69099, 0.291603, 611.918469, 241.914763)" fill="none" stroke-linejoin="miter" d="M 0.659806 36.46477 C 132.300964 -9.489142 247.29574 -9.486925 345.634536 36.46737 " stroke="#000000" stroke-width="4" stroke-opacity="1" stroke-miterlimit="4"/><path stroke-linecap="butt" transform="matrix(-0.739988, 0.122138, -0.122138, -0.739988, 689.397281, 495.819786)" fill="none" stroke-linejoin="miter" d="M 1.524836 6.263524 C 6.332298 0.579926 13.548736 0.578019 23.16816 6.262094 " stroke="#000000" stroke-width="4" stroke-opacity="1" stroke-miterlimit="4"/><path stroke-linecap="butt" transform="matrix(0.608906, 0.437874, -0.437874, 0.608906, 553.670184, 227.252336)" fill="none" stroke-linejoin="miter" d="M -0.00267695 1.999629 C 18.678172 1.999356 37.359021 1.999084 56.039869 1.998811 " stroke="#000000" stroke-width="4" stroke-opacity="1" stroke-miterlimit="4"/><path stroke-linecap="butt" transform="matrix(0.307578, 0.684029, -0.684029, 0.307578, 564.815135, 226.231122)" fill="none" stroke-linejoin="miter" d="M 1.097415 12.860865 C 23.135886 -1.619588 56.248138 -1.623844 100.439399 12.86187 " stroke="#000000" stroke-width="4" stroke-opacity="1" stroke-miterlimit="4"/><path stroke-linecap="butt" transform="matrix(-0.129029, 0.738818, -0.738818, -0.129029, 219.76801, 438.910125)" fill="none" stroke-linejoin="miter" d="M 0.000663492 2.00166 C 5.107433 1.998047 20.647059 2.001777 46.628012 2.000797 " stroke="#000000" stroke-width="4" stroke-opacity="1" stroke-miterlimit="4"/></svg>