<?xml version="1.0" encoding="UTF-8"?>
<svg version="1.1" xmlns="http://www.w3.org/2000/svg" width="728" height="1024">
<path d="M0 0 C240.24 0 480.48 0 728 0 C728 337.92 728 675.84 728 1024 C487.76 1024 247.52 1024 0 1024 C0 686.08 0 348.16 0 0 Z " fill="#FDFDFD" transform="translate(0,0)"/>
<path d="M0 0 C1.12583496 0.00797607 1.12583496 0.00797607 2.27441406 0.01611328 C7.06480338 0.09784995 11.54632676 0.5466888 16.21484375 1.67578125 C20.336083 2.63284629 24.52368328 3.16860923 28.70703125 3.78515625 C30.54253162 4.07142695 32.37272251 4.39989242 34.1875 4.796875 C42.68939036 6.33784263 51.38003873 5.35030623 59.6875 3.25 C57.4457036 5.78358578 55.54558528 6.87031247 52.375 8 C46.74206872 10.12781299 41.49278887 12.85413129 36.1796875 15.6640625 C28.87183256 18.98284226 21.65880392 19.68220724 13.75 20.3125 C11.86555482 20.46604738 9.98141333 20.62338577 8.09765625 20.78515625 C7.27402588 20.850979 6.45039551 20.91680176 5.60180664 20.98461914 C3.68179126 21.05460519 3.68179126 21.05460519 2.6875 22.25 C0.62240274 22.27913918 -1.44377265 22.23627963 -3.5078125 22.1640625 C-4.78140625 22.12023437 -6.055 22.07640625 -7.3671875 22.03125 C-8.37023926 21.99257813 -8.37023926 21.99257813 -9.39355469 21.953125 C-11.40802825 21.87612649 -13.42264939 21.80849152 -15.4375 21.7421875 C-21.47427881 21.52355165 -27.33730161 21.18252339 -33.3125 20.25 C-33.67471591 15.78267045 -33.67471591 15.78267045 -32.25 13.6875 C-29.99532147 12.01467399 -27.61097816 10.65035021 -25.15625 9.29296875 C-21.58407813 7.27226983 -18.21761455 5.15511455 -15.3125 2.25 C-10.0950704 0.38616351 -5.46059333 -0.07032395 0 0 Z " fill="#E6E6E6" transform="translate(594.3125,579.75)"/>
<path d="M0 0 C0.77811035 0.01933594 1.5562207 0.03867187 2.35791016 0.05859375 C4.82295865 0.12475649 7.2860138 0.21482626 9.75 0.3125 C10.53689209 0.33481689 11.32378418 0.35713379 12.13452148 0.38012695 C14.359375 0.48828125 14.359375 0.48828125 18 1 C18.99 2.485 18.99 2.485 20 4 C15.37716375 7.48524175 11.51563256 8.85060916 5.875 9.9375 C0.55532669 11.04652436 -4.09101511 12.33630244 -9 14.75 C-19.65507849 19.5264145 -33.06253359 17.94563201 -43.7578125 13.9765625 C-46.18973722 13.02140544 -48.59993668 12.03217754 -51 11 C-51 10.34 -51 9.68 -51 9 C-49.32744141 8.84337891 -49.32744141 8.84337891 -47.62109375 8.68359375 C-42.57951621 8.05242596 -37.89277555 6.59656314 -33.0625 5.0625 C-21.66731272 1.47916261 -12.01437412 -0.37655237 0 0 Z " fill="#F0F0F0" transform="translate(406,737)"/>
<path d="M0 0 C0.66 0 1.32 0 2 0 C2 0.99 2 1.98 2 3 C2.99 3.495 2.99 3.495 4 4 C4.495 4.99 4.495 4.99 5 6 C3.08588443 6.98414433 1.1686033 7.96213349 -0.75 8.9375 C-1.81734375 9.48277344 -2.8846875 10.02804688 -3.984375 10.58984375 C-7 12 -7 12 -9.328125 12.50390625 C-9.87984375 12.66761719 -10.4315625 12.83132812 -11 13 C-11.33 13.99 -11.66 14.98 -12 16 C-12.99 16 -13.98 16 -15 16 C-17.1519437 19.22791555 -17.20086443 20.28400809 -17 24 C-17.99 23.01 -18.98 22.02 -20 21 C-20.99 22.485 -20.99 22.485 -22 24 C-22.66 24 -23.32 24 -24 24 C-24.0928125 24.8971875 -24.0928125 24.8971875 -24.1875 25.8125 C-25.33554682 28.90339529 -27.10547052 29.5880344 -30 31 C-30.66 31 -31.32 31 -32 31 C-33.60480279 32.54775998 -33.60480279 32.54775998 -35.25 34.5625 C-35.87648438 35.30371094 -36.50296875 36.04492188 -37.1484375 36.80859375 C-37.75945312 37.53175781 -38.37046875 38.25492187 -39 39 C-39.48726562 39.52722656 -39.97453125 40.05445313 -40.4765625 40.59765625 C-52.32231117 53.53533147 -64.71475062 73.16450284 -70.875 89.5625 C-71.95339063 92.3822607 -73.06417248 95.13769956 -74.33984375 97.875 C-82.18152105 114.84796732 -86.07247939 133.48682058 -90.046875 151.67285156 C-90.27503906 152.70506836 -90.50320312 153.73728516 -90.73828125 154.80078125 C-90.93462158 155.70997314 -91.13096191 156.61916504 -91.33325195 157.5559082 C-91.9758765 159.91157073 -92.82648566 161.86602653 -94 164 C-95.4055638 159.7833086 -94.121675 156.39157405 -93.078125 152.20703125 C-92.86244873 151.3206044 -92.64677246 150.43417755 -92.42456055 149.52088928 C-91.71145677 146.61503243 -90.98279542 143.71345047 -90.25 140.8125 C-89.87868958 139.33345184 -89.87868958 139.33345184 -89.49987793 137.82452393 C-86.18584695 124.69504237 -82.60203104 111.70016186 -78.25 98.875 C-78.03637817 98.23003571 -77.82275635 97.58507141 -77.60266113 96.92056274 C-75.13451824 89.5350557 -72.27220517 83.40746285 -67.59277344 77.17626953 C-65.45029917 74.24892195 -64.02182627 71.29211398 -62.5 68 C-58.88420945 60.5414186 -54.60099397 53.95826281 -49.1875 47.6875 C-46.93120058 45.18818664 -46.93120058 45.18818664 -46 42.5 C-44.61376804 39.03442011 -42.46715561 36.79178134 -40 34 C-43.36720387 35.39332574 -44.9859524 36.9789286 -47 40 C-47.99 39.34 -48.98 38.68 -50 38 C-49.70755001 34.9083858 -49.02890314 34.02571316 -46.6640625 31.921875 C-45.15972656 30.84679687 -45.15972656 30.84679687 -43.625 29.75 C-42.64789063 29.04359375 -41.67078125 28.3371875 -40.6640625 27.609375 C-40.10348145 27.21459961 -39.54290039 26.81982422 -38.96533203 26.41308594 C-37.49002419 25.35233044 -36.03599055 24.26188442 -34.59326172 23.15722656 C-26.69361426 17.18260677 -18.32393233 12.89397057 -9.4375 8.58203125 C-8.36242187 8.04449219 -7.28734375 7.50695312 -6.1796875 6.953125 C-5.20757324 6.48036133 -4.23545898 6.00759766 -3.23388672 5.52050781 C-0.83722684 4.20246371 -0.83722684 4.20246371 -0.17626953 1.81542969 C-0.08901611 0.91679199 -0.08901611 0.91679199 0 0 Z " fill="#0F0F0F" transform="translate(295,236)"/>
<path d="M0 0 C1.07310858 3.27185553 0.89263102 5.42947592 0.0625 8.75 C-0.13214844 9.54921875 -0.32679687 10.3484375 -0.52734375 11.171875 C-0.76130859 12.07679688 -0.76130859 12.07679688 -1 13 C-1.66 13 -2.32 13 -3 13 C-3.07476562 13.61746094 -3.14953125 14.23492188 -3.2265625 14.87109375 C-4.31166193 21.86041069 -6.83715046 26.36862336 -11 32 C-11.33 32.66 -11.66 33.32 -12 34 C-11.34 34.33 -10.68 34.66 -10 35 C-9.67 35.66 -9.34 36.32 -9 37 C-7.28579179 37.98259402 -7.28579179 37.98259402 -5.25 38.875 C-1.75083736 40.55609237 1.0201892 42.49068564 4 45 C12.7963326 52.1598056 25.23848355 50.12016582 36 50 C36 50.33 36 50.66 36 51 C33.36 51.33 30.72 51.66 28 52 C34.91474285 52.84021506 40.30559492 53.23146836 47 51 C55.5611791 49.52227303 64.34648685 49.90337268 73 50 C73 50.99 73 51.98 73 53 C71.68 53.33 70.36 53.66 69 54 C69 53.34 69 52.68 69 52 C66.35375716 52.14021805 63.70815422 52.28689776 61.0625 52.4375 C59.93038086 52.49647461 59.93038086 52.49647461 58.77539062 52.55664062 C55.08055813 52.44038024 55.08055813 52.44038024 52 54 C49.68182911 54.32097751 47.36220643 54.51220956 45.03125 54.71875 C43.00819407 54.79065837 43.00819407 54.79065837 42 56 C39.58889501 56.14757986 37.20270448 56.23492171 34.7890625 56.28125 C34.06512299 56.29965942 33.34118347 56.31806885 32.5953064 56.33703613 C30.27195586 56.39595568 27.94852998 56.44867512 25.625 56.5 C22.57536579 56.56767127 19.52596501 56.64140962 16.4765625 56.71875 C15.42174179 56.73911316 15.42174179 56.73911316 14.34561157 56.7598877 C11.30983526 56.83710669 8.90243034 57.03252322 6 58 C5.34 57.34 4.68 56.68 4 56 C1.53596541 55.71714633 -0.84093686 55.53410066 -3.3125 55.4375 C-10.55647461 55.08984598 -10.55647461 55.08984598 -13.4296875 54.5078125 C-17.20043474 53.76283204 -20.97917012 53.63350429 -24.8125 53.4375 C-25.99489258 53.37272461 -25.99489258 53.37272461 -27.20117188 53.30664062 C-29.13394215 53.20121679 -31.06695026 53.10016906 -33 53 C-33 52.34 -33 51.68 -33 51 C-26.73 51 -20.46 51 -14 51 C-14.33 49.68 -14.66 48.36 -15 47 C-9.25 45 -9.25 45 -7 45 C-7 44.34 -7 43.68 -7 43 C-7.7425 42.773125 -8.485 42.54625 -9.25 42.3125 C-12.51139591 40.75592468 -13.92894975 38.91481146 -16 36 C-14.73919364 32.53278251 -13.12267875 29.45746943 -11.2734375 26.2734375 C-6.55334359 17.84676678 -2.28376926 9.43957962 0 0 Z " fill="#222323" transform="translate(74,570)"/>
<path d="M0 0 C0.70552002 0.01313232 1.41104004 0.02626465 2.13793945 0.03979492 C4.32224398 0.08988805 6.50423061 0.16671049 8.6875 0.25 C10.00492187 0.29253906 11.32234375 0.33507812 12.6796875 0.37890625 C18.68264961 0.67715067 22.60848953 0.90173514 27.6875 4.25 C29.52934239 5.13042679 31.38396096 5.98459116 33.25 6.8125 C36.43228489 8.2293009 39.58478813 9.66579182 42.6875 11.25 C42.6875 12.24 42.6875 13.23 42.6875 14.25 C42.0275 14.25 41.3675 14.25 40.6875 14.25 C40.6875 13.59 40.6875 12.93 40.6875 12.25 C39.3675 11.92 38.0475 11.59 36.6875 11.25 C36.6875 10.59 36.6875 9.93 36.6875 9.25 C36.0275 9.58 35.3675 9.91 34.6875 10.25 C34.97751229 13.56523848 35.28335368 14.89591187 37.83203125 17.12890625 C39.15267578 17.96228516 39.15267578 17.96228516 40.5 18.8125 C43.96086027 21.0260192 46.96539818 23.14718464 49.6875 26.25 C49.6875 26.91 49.6875 27.57 49.6875 28.25 C50.6775 28.58 51.6675 28.91 52.6875 29.25 C53.6775 34.2 53.6775 34.2 54.6875 39.25 C53.6975 39.25 52.7075 39.25 51.6875 39.25 C51.3575 38.92 51.0275 38.59 50.6875 38.25 C50.77 37.1775 50.8525 36.105 50.9375 35 C51.04378255 31.19093993 51.04378255 31.19093993 48.625 28.6875 C47.1709375 27.4809375 47.1709375 27.4809375 45.6875 26.25 C44.90826172 25.52490234 44.90826172 25.52490234 44.11328125 24.78515625 C34.99208578 16.42937579 26.87491815 14.55533323 14.6875 13.25 C12.72441042 12.94592788 10.76481645 12.61693466 8.8125 12.25 C7.64074219 12.0334375 7.64074219 12.0334375 6.4453125 11.8125 C5.86523438 11.626875 5.28515625 11.44125 4.6875 11.25 C4.3575 10.59 4.0275 9.93 3.6875 9.25 C5.0075 9.25 6.3275 9.25 7.6875 9.25 C7.44 8.2909375 7.44 8.2909375 7.1875 7.3125 C6.6875 5.25 6.6875 5.25 6.6875 4.25 C3.12704823 3.06318274 0.24941663 3.15310168 -3.5 3.1875 C-4.77230469 3.19652344 -6.04460937 3.20554687 -7.35546875 3.21484375 C-8.33128906 3.22644531 -9.30710937 3.23804688 -10.3125 3.25 C-7.6249592 -0.57496443 -4.26509635 -0.1343377 0 0 Z " fill="#EFEFEF" transform="translate(295.3125,510.75)"/>
<path d="M0 0 C1.23526571 3.70579714 0.25750015 5.19579417 -1.1472168 8.69775391 C-6.30628001 21.8343648 -7.75154362 35.24533054 -9.22509766 49.16870117 C-10.12926213 57.61953188 -11.21729726 65.96807417 -12.89453125 74.3046875 C-13.04274826 75.07547638 -13.19096527 75.84626526 -13.34367371 76.64041138 C-14.42969273 81.74487284 -16.21060552 85.58610124 -19 90 C-19.33 89.34 -19.66 88.68 -20 88 C-19.67 87.01 -19.34 86.02 -19 85 C-18.93062938 82.77181559 -18.91542916 80.54165476 -18.9375 78.3125 C-18.94652344 77.13300781 -18.95554687 75.95351563 -18.96484375 74.73828125 C-18.97644531 73.83464844 -18.98804687 72.93101562 -19 72 C-18.34 72.66 -17.68 73.32 -17 74 C-15.05543072 69.86581409 -14.62971979 66.230003 -14.375 61.6875 C-14.26285156 59.80611328 -14.26285156 59.80611328 -14.1484375 57.88671875 C-14.09945312 56.93410156 -14.05046875 55.98148438 -14 55 C-14.99 55 -15.98 55 -17 55 C-17.33 55.99 -17.66 56.98 -18 58 C-18.66 58 -19.32 58 -20 58 C-18.66663934 51.79212084 -17.15270441 45.67514244 -15.4375 39.5625 C-15.21642578 38.76134766 -14.99535156 37.96019531 -14.76757812 37.13476562 C-13.12858631 31.25717262 -13.12858631 31.25717262 -12 29 C-11.34 29 -10.68 29 -10 29 C-9.814375 27.72125 -9.62875 26.4425 -9.4375 25.125 C-8.06888078 18.15108003 -5.11134688 5.11134688 0 0 Z " fill="#191919" transform="translate(102,483)"/>
<path d="M0 0 C0.556875 0.226875 1.11375 0.45375 1.6875 0.6875 C0.43075117 4.45774649 -1.4711611 5.90930196 -4.3125 8.6875 C-16.89300182 21.63265405 -29.85049534 42.38149712 -36.1875 59.25 C-37.26589063 62.0697607 -38.37667248 64.82519956 -39.65234375 67.5625 C-47.49402105 84.53546732 -51.38497939 103.17432058 -55.359375 121.36035156 C-55.58753906 122.39256836 -55.81570312 123.42478516 -56.05078125 124.48828125 C-56.34529175 125.85206909 -56.34529175 125.85206909 -56.64575195 127.2434082 C-57.2883765 129.59907073 -58.13898566 131.55352653 -59.3125 133.6875 C-60.7180638 129.4708086 -59.434175 126.07907405 -58.390625 121.89453125 C-58.17494873 121.0081044 -57.95927246 120.12167755 -57.73706055 119.20838928 C-57.02395677 116.30253243 -56.29529542 113.40095047 -55.5625 110.5 C-55.31495972 109.5139679 -55.06741943 108.52793579 -54.81237793 107.51202393 C-51.49834695 94.38254237 -47.91453104 81.38766186 -43.5625 68.5625 C-43.34887817 67.91753571 -43.13525635 67.27257141 -42.91516113 66.60806274 C-40.44701824 59.2225557 -37.58470517 53.09496285 -32.90527344 46.86376953 C-30.76279917 43.93642195 -29.33432627 40.97961398 -27.8125 37.6875 C-24.19670945 30.2289186 -19.91349397 23.64576281 -14.5 17.375 C-12.24370058 14.87568664 -12.24370058 14.87568664 -11.3125 12.1875 C-9.92626804 8.72192011 -7.77965561 6.47928134 -5.3125 3.6875 C-5.9725 3.3575 -6.6325 3.0275 -7.3125 2.6875 C-2.88173077 -0.38942308 -2.88173077 -0.38942308 0 0 Z " fill="#262626" transform="translate(260.3125,266.3125)"/>
<path d="M0 0 C0.83144531 0.00902344 1.66289062 0.01804687 2.51953125 0.02734375 C4.55481337 0.0507378 6.58994564 0.08660275 8.625 0.125 C6.38475681 2.36524319 4.69937531 2.69842886 1.70703125 3.4921875 C-2.11978937 4.65531122 -5.86860931 6.19874245 -9.375 8.125 C-9.705 8.785 -10.035 9.445 -10.375 10.125 C-11.2825 10.41375 -12.19 10.7025 -13.125 11 C-16.57732897 12.19503695 -18.59533595 13.80861329 -21.375 16.125 C-22.035 16.125 -22.695 16.125 -23.375 16.125 C-23.375 16.785 -23.375 17.445 -23.375 18.125 C-24.63183102 19.0690847 -25.93171554 19.95631881 -27.25 20.8125 C-30.26028225 22.96650055 -31.89381288 24.39011009 -32.875 28 C-33.04 29.03125 -33.205 30.0625 -33.375 31.125 C-34.035 31.125 -34.695 31.125 -35.375 31.125 C-35.23066349 24.19684771 -32.22933085 20.85617658 -27.375 16.125 C-22.875 12.125 -22.875 12.125 -20.375 12.125 C-20.705 11.135 -21.035 10.145 -21.375 9.125 C-23.685 9.785 -25.995 10.445 -28.375 11.125 C-28.375 10.465 -28.375 9.805 -28.375 9.125 C-27.529375 8.7125 -26.68375 8.3 -25.8125 7.875 C-22.88259904 6.38341406 -20.08404988 4.80037603 -17.28125 3.08984375 C-11.46018787 0.14352747 -6.37946441 -0.1322696 0 0 Z " fill="#242424" transform="translate(288.375,518.875)"/>
<path d="M0 0 C1.98 0 3.96 0 6 0 C2.19588166 3.91939465 -1.81576108 7.49102731 -6 11 C-5.34 11.33 -4.68 11.66 -4 12 C-4 12.66 -4 13.32 -4 14 C-3.18015625 13.97679687 -2.3603125 13.95359375 -1.515625 13.9296875 C0.10085938 13.90261719 0.10085938 13.90261719 1.75 13.875 C3.35101562 13.84019531 3.35101562 13.84019531 4.984375 13.8046875 C7.92470106 13.99512313 9.52361878 14.47329896 12 16 C11.67 16.99 11.34 17.98 11 19 C7.64585201 19.02929977 4.29173747 19.0468989 0.9375 19.0625 C-0.00544922 19.07087891 -0.94839844 19.07925781 -1.91992188 19.08789062 C-7.0630768 19.10581103 -11.93258427 18.89259611 -17 18 C-17.36221591 13.53267045 -17.36221591 13.53267045 -15.9375 11.4375 C-13.68385221 9.76543874 -11.3000216 8.4019228 -8.84765625 7.04296875 C-3.62608231 4.33424325 -3.62608231 4.33424325 0 0 Z " fill="#1E1E1E" transform="translate(578,582)"/>
<path d="M0 0 C1.07310858 3.27185553 0.89263102 5.42947592 0.0625 8.75 C-0.13214844 9.54921875 -0.32679687 10.3484375 -0.52734375 11.171875 C-0.68332031 11.77515625 -0.83929688 12.3784375 -1 13 C-1.66 13 -2.32 13 -3 13 C-3.07476562 13.61746094 -3.14953125 14.23492188 -3.2265625 14.87109375 C-4.31166193 21.86041069 -6.83715046 26.36862336 -11 32 C-11.33 32.66 -11.66 33.32 -12 34 C-11.34 34.33 -10.68 34.66 -10 35 C-9.67 35.66 -9.34 36.32 -9 37 C-7.21566947 37.97937954 -7.21566947 37.97937954 -5.125 38.875 C-1.84320283 40.43944094 0.14840055 41.75970097 2 45 C1.34 45.99 0.68 46.98 0 48 C-2.625 48.1875 -2.625 48.1875 -5 48 C-5 48.66 -5 49.32 -5 50 C-9.455 50.495 -9.455 50.495 -14 51 C-14.33 49.68 -14.66 48.36 -15 47 C-9.25 45 -9.25 45 -7 45 C-7 44.34 -7 43.68 -7 43 C-7.7425 42.773125 -8.485 42.54625 -9.25 42.3125 C-12.51139591 40.75592468 -13.92894975 38.91481146 -16 36 C-14.73919364 32.53278251 -13.12267875 29.45746943 -11.2734375 26.2734375 C-6.55334359 17.84676678 -2.28376926 9.43957962 0 0 Z " fill="#090909" transform="translate(74,570)"/>
<path d="M0 0 C0.66 1.32 1.32 2.64 2 4 C2.66 3.34 3.32 2.68 4 2 C4.625 3.875 4.625 3.875 5 6 C4.34 6.66 3.68 7.32 3 8 C2.22362777 13.27933117 4.59319375 18.35158065 7.03125 22.94140625 C9.61297851 28.42757933 10.31565004 35.00264926 10 41 C9.01 41 8.02 41 7 41 C6.34 40.34 5.68 39.68 5 39 C4.34 39 3.68 39 3 39 C2.67 38.34 2.34 37.68 2 37 C-1.60857372 36.85565705 -4.49780095 36.82903862 -7.9375 38 C-11.82195749 39.26839428 -14.92788949 39.1404176 -19 39 C-16.15314251 36.68033834 -13.5236125 35.08418846 -10 34 C-9.01 34.33 -8.02 34.66 -7 35 C-4.45981734 34.46805397 -4.45981734 34.46805397 -1.8125 33.5625 C-0.91144531 33.27503906 -0.01039063 32.98757813 0.91796875 32.69140625 C1.60503906 32.46324219 2.29210937 32.23507812 3 32 C3.42990701 23.91137922 2.49296982 16.72433135 0 9 C-0.33 8.67 -0.66 8.34 -1 8 C-1.23529412 2.47058824 -1.23529412 2.47058824 0 0 Z " fill="#151515" transform="translate(196,580)"/>
<path d="M0 0 C0.66 0 1.32 0 2 0 C2.92273836 13.34675129 3.12242557 26.62359426 3 40 C3.99 40 4.98 40 6 40 C5.49358727 40.85061508 5.49358727 40.85061508 4.97694397 41.71841431 C3.84193172 44.36915763 3.94881616 45.68057202 4.36889648 48.50537109 C5.09160762 54.32844161 5.12668939 60.05220049 5.09765625 65.9140625 C5.0962413 67.00971527 5.09482635 68.10536804 5.09336853 69.23422241 C5.08781771 72.69784395 5.07527459 76.16139834 5.0625 79.625 C5.05747864 81.98828031 5.05291685 84.35156164 5.04882812 86.71484375 C5.03786444 92.47658501 5.02117606 98.2382877 5 104 C4.34 104 3.68 104 3 104 C2.98018066 102.69708008 2.96036133 101.39416016 2.93994141 100.05175781 C2.41971028 66.67861437 1.4166024 33.34686162 0 0 Z " fill="#B7B7B7" transform="translate(568,416)"/>
<path d="M0 0 C2.92392446 2.92392446 2.95391866 6.37176533 3.5625 10.3125 C3.69180908 11.12775146 3.82111816 11.94300293 3.9543457 12.78295898 C5.46423889 22.6064419 6.07224773 32.31912613 6.125 42.25 C6.12975342 43.00224854 6.13450684 43.75449707 6.1394043 44.52954102 C6.1227061 49.8772939 6.1227061 49.8772939 5 51 C3.4043624 51.3720248 1.79789665 51.69819799 0.1875 52 C-2.90289463 52.58429913 -5.95639333 53.20539872 -9 54 C-8.01 53.505 -8.01 53.505 -7 53 C-7.99 49.535 -7.99 49.535 -9 46 C-10.98 46.495 -10.98 46.495 -13 47 C-14.26172899 33.34628986 -14.10117918 19.69966067 -14 6 C-13.67 6 -13.34 6 -13 6 C-11.98273854 18.67943749 -11.88572327 31.28539548 -12 44 C-10.35 44 -8.7 44 -7 44 C-6.34 45.32 -5.68 46.64 -5 48 C-4.34 48 -3.68 48 -3 48 C-3 48.66 -3 49.32 -3 50 C0.465 49.505 0.465 49.505 4 49 C3.59722515 28.49844596 3.59722515 28.49844596 0.62109375 8.2578125 C0.0756376 5.39674064 -0.12674326 2.8985633 0 0 Z " fill="#A3A4A4" transform="translate(669,532)"/>
<path d="M0 0 C1.65 0.33 3.3 0.66 5 1 C4.16268784 10.83841793 3.08935886 20.56563392 1.125 30.25 C0.97579102 31.02255127 0.82658203 31.79510254 0.67285156 32.59106445 C-0.42036431 37.71230018 -2.20013711 41.57176498 -5 46 C-5.33 45.34 -5.66 44.68 -6 44 C-5.67 43.01 -5.34 42.02 -5 41 C-4.93062938 38.77181559 -4.91542916 36.54165476 -4.9375 34.3125 C-4.94652344 33.13300781 -4.95554687 31.95351563 -4.96484375 30.73828125 C-4.97644531 29.83464844 -4.98804687 28.93101562 -5 28 C-4.34 28.66 -3.68 29.32 -3 30 C-1.05543072 25.86581409 -0.62971979 22.230003 -0.375 17.6875 C-0.26285156 15.80611328 -0.26285156 15.80611328 -0.1484375 13.88671875 C-0.09945312 12.93410156 -0.05046875 11.98148438 0 11 C-0.99 11 -1.98 11 -3 11 C-3.33 11.99 -3.66 12.98 -4 14 C-4.66 14 -5.32 14 -6 14 C-5.67 11.69 -5.34 9.38 -5 7 C-3.68 7.66 -2.36 8.32 -1 9 C-0.67 6.03 -0.34 3.06 0 0 Z " fill="#2D2D2D" transform="translate(88,527)"/>
<path d="M0 0 C0.495 0.99 0.495 0.99 1 2 C0.42894531 2.44988281 -0.14210937 2.89976562 -0.73046875 3.36328125 C-7.95173369 9.0920749 -14.99473925 15.01104651 -22 21 C-22.68578125 21.58265625 -23.3715625 22.1653125 -24.078125 22.765625 C-42.06241049 37.97850803 -42.06241049 37.97850803 -57 56 C-57.33 55.34 -57.66 54.68 -58 54 C-59.32 55.32 -60.64 56.64 -62 58 C-60.96330197 52.68692261 -58.68783886 50.53909511 -54.69921875 47.265625 C-51.06168335 44.2124115 -47.5985543 40.98729468 -44.125 37.75 C-43.12496948 36.82767578 -43.12496948 36.82767578 -42.10473633 35.88671875 C-41.47462646 35.30019531 -40.8445166 34.71367187 -40.1953125 34.109375 C-39.62828613 33.58311523 -39.06125977 33.05685547 -38.47705078 32.51464844 C-36.77604386 30.863159 -36.77604386 30.863159 -35 28 C-33.3347971 26.99756442 -31.6679696 25.99782524 -30 25 C-28.52063298 23.60562354 -27.08358376 22.16525594 -25.6875 20.6875 C-22.36932528 17.29279407 -19.04072248 14.37113202 -15.1875 11.61328125 C-11.44043496 8.84982078 -7.89936706 5.83136788 -4.3203125 2.85546875 C-2 1 -2 1 0 0 Z " fill="#2F2F2F" transform="translate(244,275)"/>
<path d="M0 0 C4.83256305 0.41421969 6.82679218 2.46413986 10 6 C9.67 6.66 9.34 7.32 9 8 C9.7425 7.7525 10.485 7.505 11.25 7.25 C14 7 14 7 16.3125 8.8125 C18 11 18 11 18 13 C19.32 13.33 20.64 13.66 22 14 C21.01 14.495 21.01 14.495 20 15 C20 15.99 20 16.98 20 18 C20.99 18 21.98 18 23 18 C23.33 17.34 23.66 16.68 24 16 C24.495 17.98 24.495 17.98 25 20 C23.35 20 21.7 20 20 20 C19.67 19.01 19.34 18.02 19 17 C16.66924071 17.95865509 16.66924071 17.95865509 15 21 C13.875 14.25 13.875 14.25 15 12 C12.525 11.505 12.525 11.505 10 11 C10 10.34 10 9.68 10 9 C9.38253906 8.89042969 8.76507812 8.78085937 8.12890625 8.66796875 C2.22287499 7.5622734 -3.35197559 6.04638565 -9 4 C-9 3.67 -9 3.34 -9 3 C-4.545 2.505 -4.545 2.505 0 2 C0 1.34 0 0.68 0 0 Z " fill="#1A1A1A" transform="translate(505,497)"/>
<path d="M0 0 C2.31 0 4.62 0 7 0 C7 0.99 7 1.98 7 3 C10.3 2.67 13.6 2.34 17 2 C13.37668304 4.71748772 12.42728006 5.31059952 8.265625 5.75390625 C5.26624693 6.07970076 2.29444301 6.542011 -0.6875 7 C-1.78449219 7.165 -2.88148438 7.33 -4.01171875 7.5 C-6.38959227 7.89786642 -8.67658097 8.36685418 -11 9 C-11 8.67 -11 8.34 -11 8 C-11.74685059 7.98018066 -12.49370117 7.96036133 -13.26318359 7.93994141 C-16.63415605 7.84491789 -20.00448929 7.73514741 -23.375 7.625 C-24.550625 7.5940625 -25.72625 7.563125 -26.9375 7.53125 C-28.05898438 7.49257813 -29.18046875 7.45390625 -30.3359375 7.4140625 C-31.89127197 7.36693115 -31.89127197 7.36693115 -33.47802734 7.31884766 C-36 7 -36 7 -38 5 C-34.09686563 3.68865282 -30.22457296 3.96956491 -26.171875 4.12109375 C-25.04836639 4.15651024 -25.04836639 4.15651024 -23.90216064 4.19264221 C-21.51790112 4.26900656 -19.13398895 4.35314717 -16.75 4.4375 C-15.13022514 4.49074799 -13.51043349 4.5434882 -11.890625 4.59570312 C-7.92686479 4.72458463 -3.96339799 4.86043928 0 5 C0 3.35 0 1.7 0 0 Z " fill="#2B2B2B" transform="translate(304,562)"/>
<path d="M0 0 C0.33 0 0.66 0 1 0 C1.33 2.64 1.66 5.28 2 8 C2.99 7.67 3.98 7.34 5 7 C3.99308773 9.16873412 2.99855869 11.00180164 1.5 12.875 C-0.17736681 14.99716673 -0.17736681 14.99716673 -0.8125 17.9375 C-2 21 -2 21 -4.65234375 22.81640625 C-9.94124759 27.04515229 -12.08422343 33.95431782 -14.75 40 C-15.33064317 41.28448254 -15.91266376 42.56834337 -16.49609375 43.8515625 C-18.76371404 48.86216455 -20.99033292 53.87928245 -23 59 C-23.66 59 -24.32 59 -25 59 C-20.57233292 44.81133958 -13.83877239 28.72007777 -4.4375 17.0625 C-0.86889795 11.94233184 -0.51025132 6.04244979 0 0 Z " fill="#6D6D6D" transform="translate(159,354)"/>
<path d="M0 0 C3.55737844 1.29416052 6.38920457 2.82778775 9.4375 5.0625 C14.26669617 8.53166653 19.22308649 11.74372855 24.26538086 14.89086914 C27.13566439 16.70438303 29.74343576 18.44417814 32 21 C31.34 21.33 30.68 21.66 30 22 C30.99 22.66 31.98 23.32 33 24 C26.95239378 23.67030184 23.65269382 20.83983968 19.125 17.1875 C14.48815892 13.48428107 10.10999684 10.3181353 4.65966797 7.91381836 C2.10465448 6.50701997 1.10713349 4.62944203 0 2 C0 1.34 0 0.68 0 0 Z " fill="#525252" transform="translate(477,236)"/>
<path d="M0 0 C0 0.33 0 0.66 0 1 C-6.73369393 2.71403118 -13.42332954 3.58996395 -20.32202148 4.30224609 C-23.96753428 4.38509373 -23.96753428 4.38509373 -27 6 C-28.5202757 6.33026807 -30.05156446 6.61025444 -31.5859375 6.8671875 C-32.51664062 7.03089844 -33.44734375 7.19460937 -34.40625 7.36328125 C-36.37653182 7.70289562 -38.34789658 8.03628922 -40.3203125 8.36328125 C-41.25359375 8.52957031 -42.186875 8.69585937 -43.1484375 8.8671875 C-44.00614746 9.01269043 -44.86385742 9.15819336 -45.74755859 9.30810547 C-48.29636461 10.09103591 -49.21601565 11.07757595 -51 13 C-51.99 13.33 -52.98 13.66 -54 14 C-54.33 13.34 -54.66 12.68 -55 12 C-55.53109375 12.22816406 -56.0621875 12.45632812 -56.609375 12.69140625 C-57.31578125 12.97886719 -58.0221875 13.26632813 -58.75 13.5625 C-59.44609375 13.85253906 -60.1421875 14.14257812 -60.859375 14.44140625 C-63.32267287 15.08420113 -64.59358157 14.6897518 -67 14 C-54.83075531 8.82407275 -43.0336582 5.21893215 -30 3 C-29.13455566 2.85046875 -28.26911133 2.7009375 -27.37744141 2.546875 C-24.73315101 2.0981821 -22.08669043 1.66873819 -19.4375 1.25 C-18.64102051 1.12206055 -17.84454102 0.99412109 -17.02392578 0.86230469 C-11.32185518 0.01764161 -5.75932254 -0.13638706 0 0 Z " fill="#292929" transform="translate(372,221)"/>
<path d="M0 0 C0.99 0.33 1.98 0.66 3 1 C3.08165496 3.20770805 3.13948488 5.41630425 3.1875 7.625 C3.22230469 8.85476563 3.25710937 10.08453125 3.29296875 11.3515625 C2.9787947 15.26407664 1.96906533 17.64070218 0 21 C-0.66 20.34 -1.32 19.68 -2 19 C-2.99 19 -3.98 19 -5 19 C-5.66 20.32 -6.32 21.64 -7 23 C-5.75297849 16.64549677 -4.42635741 10.31672565 -3 4 C-2.34 4 -1.68 4 -1 4 C-0.67 2.68 -0.34 1.36 0 0 Z " fill="#E3E3E3" transform="translate(85,537)"/>
<path d="M0 0 C1.0625 1.8125 1.0625 1.8125 2 4 C1.67 4.99 1.34 5.98 1 7 C1.62648438 6.71125 2.25296875 6.4225 2.8984375 6.125 C3.71570313 5.75375 4.53296875 5.3825 5.375 5 C6.18710937 4.62875 6.99921875 4.2575 7.8359375 3.875 C10 3 10 3 12 3 C11 6 11 6 8.19921875 7.68359375 C7.04035156 8.26238281 5.88148438 8.84117187 4.6875 9.4375 C0.40368413 11.58180649 -2.69203982 13.55578517 -6 17 C-6.66 17 -7.32 17 -8 17 C-8.061875 17.7425 -8.12375 18.485 -8.1875 19.25 C-9.25149912 22.85122777 -10.91370672 23.96756296 -14 26 C-14.66 26 -15.32 26 -16 26 C-16 25.34 -16 24.68 -16 24 C-15.34 24 -14.68 24 -14 24 C-14 20.37 -14 16.74 -14 13 C-13.01 13 -12.02 13 -11 13 C-11.29296875 15.05078125 -11.5859375 17.1015625 -11.87890625 19.15234375 C-11.91886719 19.76207031 -11.95882813 20.37179687 -12 21 C-11.67 21.33 -11.34 21.66 -11 22 C-10.896875 21.21625 -10.79375 20.4325 -10.6875 19.625 C-10 17 -10 17 -7 15 C-6.690625 14.154375 -6.38125 13.30875 -6.0625 12.4375 C-5.5365625 11.2309375 -5.5365625 11.2309375 -5 10 C-2.875 9.1875 -2.875 9.1875 -1 9 C-1.020625 7.700625 -1.04125 6.40125 -1.0625 5.0625 C-1.08399454 3.70834367 -1.07148199 2.35243917 -1 1 C-0.67 0.67 -0.34 0.34 0 0 Z " fill="#2C2E2D" transform="translate(445,502)"/>
<path d="M0 0 C1.5160576 4.56001701 1.04776906 9.33169755 0.9609375 14.06835938 C0.91818064 17.87015647 1.15328946 21.29810276 2 25 C2.03772913 26.9996441 2.04649906 29.00054061 2 31 C2.66 31 3.32 31 4 31 C4 33.97 4 36.94 4 40 C2.68 40.66 1.36 41.32 0 42 C-2.04024369 34.18293874 -2.31144269 26.59166591 -2.26074219 18.53808594 C-2.24987151 16.4756225 -2.26077254 14.4140021 -2.2734375 12.3515625 C-2.27085937 11.04960938 -2.26828125 9.74765625 -2.265625 8.40625 C-2.26224121 6.63217773 -2.26224121 6.63217773 -2.25878906 4.82226562 C-2 2 -2 2 0 0 Z " fill="#656565" transform="translate(194,516)"/>
<path d="M0 0 C0.66 0 1.32 0 2 0 C0.62121957 4.02144292 -1.31742634 6.73061335 -4 10 C-4.309375 10.66 -4.61875 11.32 -4.9375 12 C-6.12150259 14.22871076 -7.63871956 15.72130194 -9.44921875 17.45703125 C-12.81162663 20.80250005 -15.87193605 24.43731268 -19 28 C-19.87978516 28.97066406 -19.87978516 28.97066406 -20.77734375 29.9609375 C-23.62596319 33.15083408 -25.73395941 35.82206606 -27 40 C-28.32 39.67 -29.64 39.34 -31 39 C-30.26420788 37.53444684 -29.51074874 36.07775513 -28.75 34.625 C-28.12351562 33.40683594 -28.12351562 33.40683594 -27.484375 32.1640625 C-25.82236813 29.74103143 -24.59541645 29.23269278 -22 28 C-21.00424474 26.23333744 -20.0111621 24.4644729 -19.0703125 22.66796875 C-17.5418999 20.28609949 -15.43149059 19.37161008 -13 18 C-11.96642853 16.35394174 -10.95939668 14.69036558 -10 13 C-9.34 13 -8.68 13 -8 13 C-8 11.35 -8 9.7 -8 8 C-7.13375 7.690625 -7.13375 7.690625 -6.25 7.375 C-3.20666366 5.51518335 -1.92688574 2.95455813 0 0 Z " fill="#363636" transform="translate(481,759)"/>
<path d="M0 0 C1.31625194 2.63250388 0.74813658 3.80179056 0.0625 6.625 C-0.13214844 7.44226563 -0.32679687 8.25953125 -0.52734375 9.1015625 C-0.68332031 9.72804688 -0.83929688 10.35453125 -1 11 C-0.34 10.67 0.32 10.34 1 10 C0.08379383 12.53718631 -0.71541509 14.65354881 -2.4375 16.75 C-4.81550182 20.17432262 -5.80501345 24.03366167 -7 28 C-7.66 28 -8.32 28 -9 28 C-9.66 29.32 -10.32 30.64 -11 32 C-11.66 32 -12.32 32 -13 32 C-13.33 30.35 -13.66 28.7 -14 27 C-13.34 27 -12.68 27 -12 27 C-10.02 22.71 -8.04 18.42 -6 14 C-5.34 14 -4.68 14 -4 14 C-4.33 13.01 -4.66 12.02 -5 11 C-6.32 11.33 -7.64 11.66 -9 12 C-8.67 11.01 -8.34 10.02 -8 9 C-6.35 9 -4.7 9 -3 9 C-2.87625 8.071875 -2.7525 7.14375 -2.625 6.1875 C-2 3 -2 3 0 0 Z " fill="#6F6F6F" transform="translate(120,441)"/>
<path d="M0 0 C3.48670834 1.1094072 6.77484237 2.26337666 10 4 C10 4.99 10 5.98 10 7 C9.34 7 8.68 7 8 7 C8 6.34 8 5.68 8 5 C6.68 4.67 5.36 4.34 4 4 C4 3.34 4 2.68 4 2 C3.01 2.495 3.01 2.495 2 3 C2.29001229 6.31523848 2.59585368 7.64591187 5.14453125 9.87890625 C6.02496094 10.43449219 6.90539062 10.99007812 7.8125 11.5625 C11.27336027 13.7760192 14.27789818 15.89718464 17 19 C17 19.66 17 20.32 17 21 C17.99 21.33 18.98 21.66 20 22 C20.66 25.3 21.32 28.6 22 32 C21.01 32 20.02 32 19 32 C18.67 31.67 18.34 31.34 18 31 C18.0825 29.9275 18.165 28.855 18.25 27.75 C18.35628255 23.94093993 18.35628255 23.94093993 15.9375 21.4375 C14.4834375 20.2309375 14.4834375 20.2309375 13 19 C12.22076172 18.27490234 12.22076172 18.27490234 11.42578125 17.53515625 C5.79053668 12.37279933 -0.36788996 8.24523901 -8 7 C-8 6.67 -8 6.34 -8 6 C-5.36 6 -2.72 6 0 6 C0 4.02 0 2.04 0 0 Z " fill="#242424" transform="translate(328,518)"/>
<path d="M0 0 C1.42119141 0.04060547 1.42119141 0.04060547 2.87109375 0.08203125 C3.75925781 0.11683594 4.64742188 0.15164063 5.5625 0.1875 C6.8825 0.1875 8.2025 0.1875 9.5625 0.1875 C10.90414079 0.4856424 12.24101173 0.80993192 13.5625 1.1875 C11.5825 2.1775 11.5825 2.1775 9.5625 3.1875 C9.5625 4.5075 9.5625 5.8275 9.5625 7.1875 C7.90635343 7.56968767 6.23792976 7.90145102 4.5625 8.1875 C4.2325 7.8575 3.9025 7.5275 3.5625 7.1875 C0.87014224 6.95071284 -1.80248156 6.76551975 -4.5 6.625 C-5.25861328 6.58181641 -6.01722656 6.53863281 -6.79882812 6.49414062 C-8.67815438 6.38776367 -10.55780244 6.28710066 -12.4375 6.1875 C-11.839375 5.754375 -11.24125 5.32125 -10.625 4.875 C-8.44495057 3.31685763 -8.44495057 3.31685763 -7.02734375 1.51171875 C-4.71013306 -0.41834126 -2.96352219 -0.10856866 0 0 Z " fill="#F4F4F4" transform="translate(293.4375,512.8125)"/>
<path d="M0 0 C0 0.66 0 1.32 0 2 C-0.9590625 2.1546875 -0.9590625 2.1546875 -1.9375 2.3125 C-2.618125 2.539375 -3.29875 2.76625 -4 3 C-4.33 3.99 -4.66 4.98 -5 6 C-5.33 4.68 -5.66 3.36 -6 2 C-6.99 2 -7.98 2 -9 2 C-9.33 2.99 -9.66 3.98 -10 5 C-10.66 5 -11.32 5 -12 5 C-12 4.01 -12 3.02 -12 2 C-12.55461914 2.09611572 -13.10923828 2.19223145 -13.68066406 2.29125977 C-16.20241798 2.7234173 -18.72609919 3.14307091 -21.25 3.5625 C-22.12269531 3.71396484 -22.99539063 3.86542969 -23.89453125 4.02148438 C-24.73886719 4.16005859 -25.58320313 4.29863281 -26.453125 4.44140625 C-27.22817383 4.57232666 -28.00322266 4.70324707 -28.80175781 4.83813477 C-31.11173847 5.00822774 -32.80085213 4.68559092 -35 4 C-24.07555471 0.12608323 -11.48241037 -3.82747012 0 0 Z " fill="#333333" transform="translate(409,738)"/>
<path d="M0 0 C0 0.66 0 1.32 0 2 C-3.05807192 3.48845002 -6.12216144 4.96408052 -9.1875 6.4375 C-10.05181641 6.85837891 -10.91613281 7.27925781 -11.80664062 7.71289062 C-12.64775391 8.11572266 -13.48886719 8.51855469 -14.35546875 8.93359375 C-15.12528076 9.30540771 -15.89509277 9.67722168 -16.68823242 10.06030273 C-20.5758032 11.64053929 -24.25278155 12.12767783 -28.42578125 12.09765625 C-29.61977539 12.09282227 -29.61977539 12.09282227 -30.83789062 12.08789062 C-31.65451172 12.07951172 -32.47113281 12.07113281 -33.3125 12.0625 C-34.56643555 12.05573242 -34.56643555 12.05573242 -35.84570312 12.04882812 C-37.89716649 12.03710548 -39.94859273 12.01917203 -42 12 C-41.67 11.34 -41.34 10.68 -41 10 C-38.81781731 9.81537705 -36.62704907 9.73088001 -34.4375 9.6875 C-28.50862093 9.43782512 -23.15803324 8.47681541 -17.5 6.6875 C-16.85474365 6.48664795 -16.2094873 6.2857959 -15.54467773 6.07885742 C-12.21366257 4.96823194 -9.22419461 3.61907365 -6.21875 1.83203125 C-3 0 -3 0 0 0 Z " fill="#3C3D3C" transform="translate(438,809)"/>
<path d="M0 0 C0.33 0.99 0.66 1.98 1 3 C-1.13604237 6.79740867 -3.23445654 9.74067392 -7 12 C-7.66 12 -8.32 12 -9 12 C-9 12.66 -9 13.32 -9 14 C-10.25683102 14.9440847 -11.55671554 15.83131881 -12.875 16.6875 C-15.88528225 18.84150055 -17.51881288 20.26511009 -18.5 23.875 C-18.665 24.90625 -18.83 25.9375 -19 27 C-19.66 27 -20.32 27 -21 27 C-20.85566349 20.07184771 -17.85433085 16.73117658 -13 12 C-8.5 8 -8.5 8 -6 8 C-5.938125 7.236875 -5.87625 6.47375 -5.8125 5.6875 C-5 3 -5 3 -2.4375 1.1875 C-1.633125 0.795625 -0.82875 0.40375 0 0 Z " fill="#3E3E3E" transform="translate(274,523)"/>
<path d="M0 0 C1.175625 0.309375 2.35125 0.61875 3.5625 0.9375 C10.28196405 2.45584043 17.14044366 2.6565703 24 3 C21.60801 5.39199 19.97343298 5.960199 16.61157227 6.09765625 C15.22796509 6.08025391 15.22796509 6.08025391 13.81640625 6.0625 C12.80642578 6.05476562 11.79644531 6.04703125 10.75585938 6.0390625 C8.63085879 6.01306861 6.50585879 5.98702712 4.38085938 5.9609375 C3.36958984 5.95320312 2.35832031 5.94546875 1.31640625 5.9375 C0.39287354 5.92589844 -0.53065918 5.91429687 -1.48217773 5.90234375 C-3.81540758 5.9928404 -5.76979469 6.33658656 -8 7 C-6.1875 5 -6.1875 5 -4 3 C-3.01 3 -2.02 3 -1 3 C-0.67 2.01 -0.34 1.02 0 0 Z " fill="#1D1D1D" transform="translate(431,546)"/>
<path d="M0 0 C-1.65 0.66 -3.3 1.32 -5 2 C-5 2.66 -5 3.32 -5 4 C2.38334721 8.30403653 12.69076987 7.16544927 21 7 C20.67 7.66 20.34 8.32 20 9 C6.63723208 9.27615364 -3.59758799 8.33381393 -16 3 C-16 2.34 -16 1.68 -16 1 C-14.7625 0.855625 -13.525 0.71125 -12.25 0.5625 C-9.99788038 0.28891505 -7.93870843 -0.01702544 -5.75 -0.625 C-3.57198513 -1.09171747 -2.0973306 -0.67414198 0 0 Z " fill="#565756" transform="translate(371,745)"/>
<path d="M0 0 C1.07310858 3.27185553 0.89263102 5.42947592 0.0625 8.75 C-0.13214844 9.54921875 -0.32679687 10.3484375 -0.52734375 11.171875 C-0.68332031 11.77515625 -0.83929688 12.3784375 -1 13 C-1.66 13 -2.32 13 -3 13 C-3.07476562 13.61746094 -3.14953125 14.23492188 -3.2265625 14.87109375 C-4.31166193 21.86041069 -6.83715046 26.36862336 -11 32 C-11.33 32.66 -11.66 33.32 -12 34 C-11.34 34.33 -10.68 34.66 -10 35 C-11.32 36.32 -12.64 37.64 -14 39 C-15.3125 36.9375 -15.3125 36.9375 -16 34 C-13.9375 30.9375 -13.9375 30.9375 -12.50390625 29.16015625 C-10.08297369 25.68281675 -8.73354767 21.80144868 -7.2109375 17.8671875 C-6 15 -6 15 -4.45703125 12.46484375 C-2.93724487 9.89383784 -2.11575662 7.55627366 -1.3125 4.6875 C-1.06113281 3.80449219 -0.80976562 2.92148437 -0.55078125 2.01171875 C-0.36902344 1.34785156 -0.18726562 0.68398438 0 0 Z " fill="#1C1C1C" transform="translate(74,570)"/>
<path d="M0 0 C0.66 0 1.32 0 2 0 C0.25390625 6.984375 -1.4921875 13.96875 -3.23828125 20.953125 C-3.44582031 21.78384521 -3.65335938 22.61456543 -3.8671875 23.47045898 C-4.28929255 25.15773925 -4.71247098 26.84475136 -5.13671875 28.53149414 C-6.16195621 32.61306256 -7.17051803 36.696989 -8.13671875 40.79296875 C-8.31460938 41.53611328 -8.4925 42.27925781 -8.67578125 43.04492188 C-9.00939153 44.44175574 -9.33653622 45.84015446 -9.65625 47.24023438 C-10.04225879 48.84301002 -10.51322769 50.42489833 -11 52 C-11.99 52.495 -11.99 52.495 -13 53 C-11.55933712 43.90896385 -9.36589137 35.03437321 -7.11376953 26.11889648 C-6.49711614 23.67607584 -5.88684744 21.23172263 -5.27734375 18.78710938 C-4.88318635 17.21605199 -4.48866789 15.64508514 -4.09375 14.07421875 C-3.91348267 13.35223801 -3.73321533 12.63025726 -3.54748535 11.88639832 C-2.52683893 7.85986053 -1.36629833 3.92273461 0 0 Z " fill="#4D4E4D" transform="translate(213,347)"/>
<path d="M0 0 C-6.17455062 3.39600284 -13.53488772 4.82933029 -20.5 5.5625 C-23.56459259 5.94557407 -25.41812439 6.38632774 -28 8 C-28 7.01 -28 6.02 -28 5 C-32.29 4.67 -36.58 4.34 -41 4 C-41 3.67 -41 3.34 -41 3 C-36.92448902 2.27546471 -33.14066703 1.96965993 -29 2.0625 C-23.05937251 2.13624572 -17.35365243 1.29575882 -11.484375 0.4453125 C-7.58534438 -0.0529941 -3.91993484 -0.15999734 0 0 Z " fill="#303130" transform="translate(395,821)"/>
<path d="M0 0 C0.33 0 0.66 0 1 0 C2.01726146 12.67943749 2.11427673 25.28539548 2 38 C3.65 38 5.3 38 7 38 C7.66 39.32 8.32 40.64 9 42 C9.66 42 10.32 42 11 42 C11 42.99 11 43.98 11 45 C10.34 45 9.68 45 9 45 C8.67 45.99 8.34 46.98 8 48 C7.01 47.67 6.02 47.34 5 47 C5.66 47 6.32 47 7 47 C6.01 43.535 6.01 43.535 5 40 C3.02 40.495 3.02 40.495 1 41 C-0.26172899 27.34628986 -0.10117918 13.69966067 0 0 Z " fill="#A9AAAA" transform="translate(655,538)"/>
<path d="M0 0 C-5.5110547 3.61662965 -11.47934522 5.98114769 -18 7 C-17.34 6.34 -16.68 5.68 -16 5 C-16.99580078 4.92652344 -16.99580078 4.92652344 -18.01171875 4.8515625 C-22.7494348 4.45041282 -26.61247795 3.89730683 -31 2 C-33.32597511 1.6186926 -35.65912158 1.27539746 -38 1 C-38 0.67 -38 0.34 -38 0 C-36.43759968 -0.02730408 -34.8750573 -0.04653226 -33.3125 -0.0625 C-32.44238281 -0.07410156 -31.57226562 -0.08570313 -30.67578125 -0.09765625 C-28 0 -28 0 -25.5625 0.4921875 C-18.38884909 1.91379515 -5.50344433 -2.75172216 0 0 Z " fill="#5B5B5B" transform="translate(654,584)"/>
<path d="M0 0 C0.33 1.32 0.66 2.64 1 4 C0.27683594 4.50660156 0.27683594 4.50660156 -0.4609375 5.0234375 C-1.09257812 5.46945312 -1.72421875 5.91546875 -2.375 6.375 C-3.31472656 7.03628906 -3.31472656 7.03628906 -4.2734375 7.7109375 C-6.12380509 9.02808866 -6.12380509 9.02808866 -8 11 C-10.625 11.125 -10.625 11.125 -13 11 C-13.1875 7.625 -13.1875 7.625 -13 4 C-9.95401253 1.96934169 -8.87187319 1.70517596 -5.375 1.4375 C-2.38885578 1.41022777 -2.38885578 1.41022777 0 0 Z " fill="#C9C9C9" transform="translate(267,527)"/>
<path d="M0 0 C2 0 2 0 3.60668945 1.22192383 C5.36519036 3.46603844 5.34981914 4.62564926 5.29296875 7.44921875 C5.28330078 8.29677734 5.27363281 9.14433594 5.26367188 10.01757812 C5.23853516 10.89865234 5.21339844 11.77972656 5.1875 12.6875 C5.17396484 13.58017578 5.16042969 14.47285156 5.14648438 15.39257812 C5.11114079 17.59566166 5.06180493 19.79752582 5 22 C4.67 22 4.34 22 4 22 C3.67 18.7 3.34 15.4 3 12 C2.67 15.96 2.34 19.92 2 24 C1.34 24 0.68 24 0 24 C-0.19682269 20.56296699 -0.38085152 17.12536573 -0.5625 13.6875 C-0.61857422 12.71103516 -0.67464844 11.73457031 -0.73242188 10.72851562 C-0.78076172 9.79072266 -0.82910156 8.85292969 -0.87890625 7.88671875 C-0.9260376 7.02264404 -0.97316895 6.15856934 -1.02172852 5.26831055 C-1 3 -1 3 0 0 Z " fill="#7F7F7F" transform="translate(552,334)"/>
<path d="M0 0 C0.96679688 0.53109375 1.93359375 1.0621875 2.9296875 1.609375 C13.02150283 7.10490513 23.03875703 11.50511094 34 15 C34 15.33 34 15.66 34 16 C27.92700531 15.44790957 22.70622521 14.11621597 17 12 C15.73929687 11.566875 15.73929687 11.566875 14.453125 11.125 C8.81055154 9.07315511 3.98279492 6.61582193 0 2 C0 1.34 0 0.68 0 0 Z " fill="#252525" transform="translate(318,808)"/>
<path d="M0 0 C0.66 0 1.32 0 2 0 C2 0.99 2 1.98 2 3 C2.66 3.33 3.32 3.66 4 4 C4.33 4.66 4.66 5.32 5 6 C3.08588443 6.98414433 1.1686033 7.96213349 -0.75 8.9375 C-1.81734375 9.48277344 -2.8846875 10.02804688 -3.984375 10.58984375 C-7 12 -7 12 -9.328125 12.56640625 C-9.87984375 12.70949219 -10.4315625 12.85257813 -11 13 C-11.33 13.66 -11.66 14.32 -12 15 C-12.99 14.01 -13.98 13.02 -15 12 C-11.32554645 9.04501987 -7.43212365 7.28101532 -3.14453125 5.37890625 C-0.82473572 4.19077206 -0.82473572 4.19077206 -0.19921875 1.83984375 C-0.13347656 1.23269531 -0.06773437 0.62554687 0 0 Z " fill="#2C2C2C" transform="translate(295,236)"/>
<path d="M0 0 C2.96546426 4.9665499 2.63107029 10.34307771 3 16 C3 11.38 3 6.76 3 2 C3.66 2.33 4.32 2.66 5 3 C6.87160708 10.94550174 6.09726778 19.89435206 6 28 C4 26 4 26 3.875 22.875 C3.91625 21.92625 3.9575 20.9775 4 20 C3.34 20 2.68 20 2 20 C0.3879491 13.23514355 -0.26618595 6.95041086 0 0 Z " fill="#757776" transform="translate(639,427)"/>
<path d="M0 0 C2.475 0.495 2.475 0.495 5 1 C5.495 2.485 5.495 2.485 6 4 C3.00096538 6.8781944 1.18637725 7.94410743 -3.02636719 8.14257812 C-6.65845214 7.94403643 -10.25709903 7.62686468 -13.875 7.25 C-15.13570312 7.1365625 -16.39640625 7.023125 -17.6953125 6.90625 C-20.79930385 6.62406897 -23.89986343 6.32138273 -27 6 C-27 5.34 -27 4.68 -27 4 C-25.9330188 4.01571045 -25.9330188 4.01571045 -24.84448242 4.03173828 C-21.62552414 4.07328001 -18.40662224 4.09932039 -15.1875 4.125 C-13.50817383 4.15013672 -13.50817383 4.15013672 -11.79492188 4.17578125 C-10.18520508 4.18544922 -10.18520508 4.18544922 -8.54296875 4.1953125 C-7.55321045 4.20578613 -6.56345215 4.21625977 -5.54370117 4.22705078 C-2.7556048 4.18267404 -2.7556048 4.18267404 0 2 C0 1.34 0 0.68 0 0 Z " fill="#414141" transform="translate(68,617)"/>
<path d="M0 0 C2.5 0.1875 2.5 0.1875 5 1 C5.66 1.99 6.32 2.98 7 4 C6.01 4 5.02 4 4 4 C2.65486576 7.14061025 2.65486576 7.14061025 4 11 C1.03 10.67 -1.94 10.34 -5 10 C-5.33 9.01 -5.66 8.02 -6 7 C-4.68 6.67 -3.36 6.34 -2 6 C-2.99 5.34 -3.98 4.68 -5 4 C-4.01 3.34 -3.02 2.68 -2 2 C-1.34 1.34 -0.68 0.68 0 0 Z " fill="#111113" transform="translate(75,615)"/>
<path d="M0 0 C0.66 0 1.32 0 2 0 C2.06058594 1.21558594 2.12117188 2.43117188 2.18359375 3.68359375 C2.26798332 5.26824228 2.3526321 6.85287702 2.4375 8.4375 C2.47681641 9.23994141 2.51613281 10.04238281 2.55664062 10.86914062 C2.4054296 14.75239561 2.4054296 14.75239561 4 18 C4.07179964 19.51928038 4.08392007 21.04167482 4.0625 22.5625 C4.05347656 23.38878906 4.04445313 24.21507812 4.03515625 25.06640625 C4.02355469 25.70449219 4.01195312 26.34257813 4 27 C3.01 27.33 2.02 27.66 1 28 C0.07840421 21.78829926 -0.12177385 15.77390894 -0.0625 9.5 C-0.05798828 8.5821875 -0.05347656 7.664375 -0.04882812 6.71875 C-0.03716326 4.47909609 -0.02079614 2.23958455 0 0 Z " fill="#3E3F3F" transform="translate(415,629)"/>
<path d="M0 0 C1.98 0 3.96 0 6 0 C5 3 5 3 2 5 C-4.67955302 6.21091312 -10.64111723 6.45684107 -17 4 C-17 3.67 -17 3.34 -17 3 C-11.27959989 2.1679418 -5.77759884 1.87963336 0 2 C0 1.34 0 0.68 0 0 Z " fill="#404040" transform="translate(402,780)"/>
<path d="M0 0 C1.85625 -0.00773438 1.85625 -0.00773438 3.75 -0.015625 C7 0.25 7 0.25 10 2.25 C2.78849772 5.78505014 -3.13906591 5.24459989 -11 4.25 C-8.61305694 -0.52388612 -4.73091345 -0.01971214 0 0 Z " fill="#A7A9A8" transform="translate(112,618.75)"/>
<path d="M0 0 C0.33 0.66 0.66 1.32 1 2 C0.1626774 4.05497835 -0.77162593 6.07080993 -1.75 8.0625 C-3.92592901 12.61991814 -5.79092838 17.05416137 -7.28125 21.87109375 C-8.33909762 25.00439242 -9.72743168 27.96651159 -11.1328125 30.95703125 C-12.06499021 32.98229002 -12.06499021 32.98229002 -12.48828125 35.18359375 C-13 37 -13 37 -15.0625 38.25 C-15.701875 38.4975 -16.34125 38.745 -17 39 C-15.87760417 36.19401042 -14.75520833 33.38802083 -13.6328125 30.58203125 C-13.38909912 29.97246582 -13.14538574 29.36290039 -12.89428711 28.73486328 C-12.36984041 27.42432905 -11.84457859 26.11412079 -11.31860352 24.80419922 C-10.1589318 21.9136166 -9.00839434 19.0219202 -7.89453125 16.11328125 C-5.71556245 10.44796237 -3.08199362 5.22928425 0 0 Z " fill="#353535" transform="translate(543,655)"/>
<path d="M0 0 C0.33 0.99 0.66 1.98 1 3 C2.98 3 4.96 3 7 3 C7 4.98 7 6.96 7 9 C6.01 8.67 5.02 8.34 4 8 C3.67 7.34 3.34 6.68 3 6 C2.01 5.67 1.02 5.34 0 5 C-0.33 5.66 -0.66 6.32 -1 7 C-2.0828125 6.7525 -2.0828125 6.7525 -3.1875 6.5 C-5.86427545 6.02412881 -8.28949487 5.922557 -11 6 C-11 5.01 -11 4.02 -11 3 C-9.88625 2.690625 -8.7725 2.38125 -7.625 2.0625 C-0.58823529 0 -0.58823529 0 0 0 Z " fill="#1F1F1F" transform="translate(341,553)"/>
<path d="M0 0 C0 0.66 0 1.32 0 2 C-0.66 2 -1.32 2 -2 2 C-2 2.66 -2 3.32 -2 4 C-1.01 4 -0.02 4 1 4 C0.67 5.32 0.34 6.64 0 8 C-1.98 8 -3.96 8 -6 8 C-5.34 6.35 -4.68 4.7 -4 3 C-4.50789063 3.34933594 -5.01578125 3.69867187 -5.5390625 4.05859375 C-9.69405656 6.80524712 -12.90884805 8.6181636 -18 9 C-18 8.34 -18 7.68 -18 7 C-16.7315625 6.38125 -16.7315625 6.38125 -15.4375 5.75 C-12.99962392 4.50889945 -10.75397965 3.23997978 -8.4375 1.8125 C-5.14419313 0.07602911 -3.61795898 -0.43854048 0 0 Z " fill="#050505" transform="translate(278,521)"/>
<path d="M0 0 C0.66 0 1.32 0 2 0 C2.33 1.98 2.66 3.96 3 6 C3.66 5.34 4.32 4.68 5 4 C4.67 5.65 4.34 7.3 4 9 C3.01 9.33 2.02 9.66 1 10 C1 12.97 1 15.94 1 19 C0.01 19 -0.98 19 -2 19 C-2 14.71 -2 10.42 -2 6 C-2.99 6 -3.98 6 -5 6 C-3.38405168 3.95880212 -1.7143618 1.95927063 0 0 Z " fill="#303030" transform="translate(426,527)"/>
<path d="M0 0 C0.33 0.66 0.66 1.32 1 2 C0.42894531 2.44988281 -0.14210937 2.89976562 -0.73046875 3.36328125 C-6.40790582 7.86732115 -11.97338767 12.47776305 -17.4440918 17.22973633 C-20.47730491 19.83332651 -23.50584946 22.05593473 -27 24 C-24.99828787 19.50811967 -21.75398438 17.03385949 -18 14 C-17.09894531 13.25878906 -16.19789063 12.51757812 -15.26953125 11.75390625 C-12.51983488 9.49403433 -9.7640822 7.24224957 -7 5 C-6.10539062 4.27039063 -5.21078125 3.54078125 -4.2890625 2.7890625 C-2 1 -2 1 0 0 Z " fill="#2B2B2B" transform="translate(244,275)"/>
<path d="M0 0 C0.70705078 0.01095703 1.41410156 0.02191406 2.14257812 0.03320312 C8.30421077 0.16099172 14.43414543 0.600023 20.5625 1.25 C20.5625 1.91 20.5625 2.57 20.5625 3.25 C10.22916667 3.25 -0.10416667 3.25 -10.4375 3.25 C-7.74237814 -0.61470304 -4.28837616 -0.13213484 0 0 Z " fill="#424242" transform="translate(295.4375,510.75)"/>
<path d="M0 0 C0 0.66 0 1.32 0 2 C0.99 2 1.98 2 3 2 C3 2.66 3 3.32 3 4 C-0.3 4.66 -3.6 5.32 -7 6 C-7 5.01 -7 4.02 -7 3 C-10.96 3 -14.92 3 -19 3 C-15.38811112 0.59207408 -13.23662197 0.61507506 -8.9375 0.375 C-7.68839844 0.30023438 -6.43929688 0.22546875 -5.15234375 0.1484375 C-3.4360849 0.06762234 -1.71816051 0 0 0 Z " fill="#797979" transform="translate(392,218)"/>
<path d="M0 0 C1.23234306 3.69702917 0.65965874 4.31441654 -1.01953125 7.7109375 C-1.46490234 8.62617188 -1.91027344 9.54140625 -2.36914062 10.484375 C-2.84544922 11.43828125 -3.32175781 12.3921875 -3.8125 13.375 C-4.7369307 15.25719731 -5.6601478 17.13999126 -6.58203125 19.0234375 C-6.99686768 19.85794434 -7.4117041 20.69245117 -7.83911133 21.55224609 C-9.00009932 24.00020943 -10.02063588 26.47455314 -11 29 C-11.66 29 -12.32 29 -13 29 C-9.7767391 18.67091392 -5.28813731 9.43051154 0 0 Z " fill="#171717" transform="translate(147,384)"/>
<path d="M0 0 C1.65 0.33 3.3 0.66 5 1 C4.67 4.63 4.34 8.26 4 12 C3.67 11.01 3.34 10.02 3 9 C0.00847418 9.77479736 0.00847418 9.77479736 -3 11 C-3.33 11.99 -3.66 12.98 -4 14 C-4.66 14 -5.32 14 -6 14 C-5.67 11.69 -5.34 9.38 -5 7 C-3.68 7.66 -2.36 8.32 -1 9 C-0.67 6.03 -0.34 3.06 0 0 Z " fill="#444444" transform="translate(88,527)"/>
<path d="M0 0 C3.73566678 3.51592168 6.67274438 7.18906678 9.5703125 11.42578125 C10.04210937 11.94527344 10.51390625 12.46476563 11 13 C11.99 13 12.98 13 14 13 C15.85776765 16.13498292 16.20140476 18.37471432 16 22 C15.34 22.33 14.68 22.66 14 23 C13.34 20.69 12.68 18.38 12 16 C11.34 16 10.68 16 10 16 C8.20173555 13.74185152 6.5253199 11.48722261 4.875 9.125 C4.17310547 8.14853516 4.17310547 8.14853516 3.45703125 7.15234375 C0 2.26412172 0 2.26412172 0 0 Z " fill="#303030" transform="translate(279,765)"/>
<path d="M0 0 C0.9796875 0.00322266 1.959375 0.00644531 2.96875 0.00976562 C3.98453125 0.01814453 5.0003125 0.02652344 6.046875 0.03515625 C7.59375 0.04192383 7.59375 0.04192383 9.171875 0.04882812 C11.71360073 0.06059537 14.25520819 0.07703614 16.796875 0.09765625 C14.816875 3.06765625 14.816875 3.06765625 12.796875 6.09765625 C11.476875 5.43765625 10.156875 4.77765625 8.796875 4.09765625 C8.796875 3.43765625 8.796875 2.77765625 8.796875 2.09765625 C1.73702227 1.97999204 -5.17565188 2.43177047 -12.203125 3.09765625 C-8.01889516 0.30816969 -4.96878281 -0.02888827 0 0 Z " fill="#222222" transform="translate(160.203125,618.90234375)"/>
<path d="M0 0 C2.31 0 4.62 0 7 0 C7 0.99 7 1.98 7 3 C10.3 2.67 13.6 2.34 17 2 C12.22664673 5.58001496 8.85107739 6 3 6 C3 5.34 3 4.68 3 4 C2.01 4 1.02 4 0 4 C0 2.68 0 1.36 0 0 Z " fill="#C2C2C2" transform="translate(304,562)"/>
<path d="M0 0 C0 0.66 0 1.32 0 2 C-1.6396875 2.4021875 -1.6396875 2.4021875 -3.3125 2.8125 C-6.7643868 3.92412456 -7.75404649 4.41715346 -10 7 C-10.99 7.33 -11.98 7.66 -13 8 C-13.33 7.34 -13.66 6.68 -14 6 C-14.53109375 6.22816406 -15.0621875 6.45632812 -15.609375 6.69140625 C-16.31578125 6.97886719 -17.0221875 7.26632813 -17.75 7.5625 C-18.44609375 7.85253906 -19.1421875 8.14257812 -19.859375 8.44140625 C-22.32267287 9.08420113 -23.59358157 8.6897518 -26 8 C-23.12882484 6.84441727 -20.25246071 5.70233133 -17.375 4.5625 C-16.56675781 4.23701172 -15.75851562 3.91152344 -14.92578125 3.57617188 C-10.00057053 1.63411724 -5.36911099 0 0 0 Z " fill="#323232" transform="translate(331,227)"/>
<path d="M0 0 C5.56322513 0.8429129 11.34502637 2.48503257 15 7 C14.01 7.495 14.01 7.495 13 8 C13.99 8.66 14.98 9.32 16 10 C11.03437847 9.53401792 8.42325039 8.19372405 4.625 5 C3.75101562 4.278125 2.87703125 3.55625 1.9765625 2.8125 C1.32429688 2.214375 0.67203125 1.61625 0 1 C0 0.67 0 0.34 0 0 Z " fill="#727272" transform="translate(494,250)"/>
<path d="M0 0 C0.33 0 0.66 0 1 0 C1 1.98 1 3.96 1 6 C0.01 6 -0.98 6 -2 6 C-1.6596875 6.86625 -1.6596875 6.86625 -1.3125 7.75 C-1 10 -1 10 -2.4375 12.25 C-2.953125 12.8275 -3.46875 13.405 -4 14 C-4.99 13.67 -5.98 13.34 -7 13 C-6.67 12.34 -6.34 11.68 -6 11 C-5.9310528 9.62657169 -5.91532292 8.24997898 -5.9375 6.875 C-5.958125 5.59625 -5.97875 4.3175 -6 3 C-3.92446352 2.4465236 -2.15634036 2 0 2 C0 1.34 0 0.68 0 0 Z " fill="#949494" transform="translate(250,535)"/>
<path d="M0 0 C2.36576633 5.91441581 -1.59365631 12.82457664 -3.625 18.4375 C-4.07101562 19.67371094 -4.51703125 20.90992188 -4.9765625 22.18359375 C-5.31429687 23.11300781 -5.65203125 24.04242187 -6 25 C-6.66 24.67 -7.32 24.34 -8 24 C-7.69255859 23.07380859 -7.69255859 23.07380859 -7.37890625 22.12890625 C-5.73104882 16.9487994 -4.64976304 12.25782001 -4.50390625 6.8125 C-4 5 -4 5 -1.96484375 3.75 C-1.31644531 3.5025 -0.66804687 3.255 0 3 C0 2.01 0 1.02 0 0 Z " fill="#3F4241" transform="translate(552,626)"/>
<path d="M0 0 C1.32 0.99 2.64 1.98 4 3 C4.66 2.01 5.32 1.02 6 0 C6.66 0.33 7.32 0.66 8 1 C8.34615998 6.65394631 7.43425238 10.03006806 5 15 C4.34 15 3.68 15 3 15 C3.4021875 13.453125 3.4021875 13.453125 3.8125 11.875 C4.0089273 7.81550241 3.99427116 7.42461268 1.5625 4.5625 C0.716875 3.716875 -0.12875 2.87125 -1 2 C-0.67 1.34 -0.34 0.68 0 0 Z " fill="#B5B5B5" transform="translate(201,617)"/>
<path d="M0 0 C0 2.31 0 4.62 0 7 C-0.99 7.33 -1.98 7.66 -3 8 C-3.33 10.31 -3.66 12.62 -4 15 C-4.66 15 -5.32 15 -6 15 C-5.979375 13.7625 -5.95875 12.525 -5.9375 11.25 C-5.93233319 8.3359175 -6.06984442 5.79046673 -7 3 C-2.25 0 -2.25 0 0 0 Z " fill="#6E7271" transform="translate(242,550)"/>
<path d="M0 0 C1.32 0.33 2.64 0.66 4 1 C4 1.99 4 2.98 4 4 C-1.13033637 8.13736804 -8.52658217 9.41763986 -15 9 C-12.03689526 6.03689526 -8.55059162 5.85447133 -4.53125 4.9765625 C-1.85571558 4.23132069 -1.85571558 4.23132069 -0.65625 1.8984375 C-0.33140625 0.95871094 -0.33140625 0.95871094 0 0 Z " fill="#171717" transform="translate(421,738)"/>
<path d="M0 0 C0.66 0 1.32 0 2 0 C3.59138085 4.17737474 4.21278058 7.53160785 4 12 C2.02 12.99 0.04 13.98 -2 15 C-2.22387853 11.08212573 -1.44115183 8.60287958 0 5 C0.16798262 2.29113059 0.16798262 2.29113059 0 0 Z " fill="#909090" transform="translate(208,629)"/>
<path d="M0 0 C0.75 1.6875 0.75 1.6875 1 4 C-0.875 6.625 -0.875 6.625 -3 9 C-3.33 9.66 -3.66 10.32 -4 11 C-4.66 11 -5.32 11 -6 11 C-6 10.34 -6 9.68 -6 9 C-6.66 9 -7.32 9 -8 9 C-8 7.35 -8 5.7 -8 4 C-7.236875 3.896875 -6.47375 3.79375 -5.6875 3.6875 C-2.82940576 2.95635961 -1.84257115 2.23048087 0 0 Z " fill="#F1F3F3" transform="translate(246,554)"/>
<path d="M0 0 C0.66 0.66 1.32 1.32 2 2 C1.71269945 4.33944736 1.38063221 6.6739143 1 9 C1.33 9.33 1.66 9.66 2 10 C2.0825 9.21625 2.165 8.4325 2.25 7.625 C3 5 3 5 5.0625 3.6875 C5.701875 3.460625 6.34125 3.23375 7 3 C7 3.66 7 4.32 7 5 C6.34 5 5.68 5 5 5 C4.938125 5.7425 4.87625 6.485 4.8125 7.25 C3.74850088 10.85122777 2.08629328 11.96756296 -1 14 C-1.66 14 -2.32 14 -3 14 C-3 13.34 -3 12.68 -3 12 C-2.34 12 -1.68 12 -1 12 C-1.01160156 11.21753906 -1.02320313 10.43507813 -1.03515625 9.62890625 C-1.04417969 8.61699219 -1.05320312 7.60507812 -1.0625 6.5625 C-1.07410156 5.55316406 -1.08570313 4.54382813 -1.09765625 3.50390625 C-1 1 -1 1 0 0 Z " fill="#4F4F4F" transform="translate(432,514)"/>
<path d="M0 0 C3.38847145 1.12949048 4.19694184 2.12283218 6.4375 4.8125 C8.85689832 7.66759505 11.2971523 10.4052662 14 13 C10.10993227 11.61219205 7.03441292 9.7847773 3.6875 7.375 C2.80449219 6.74335937 1.92148437 6.11171875 1.01171875 5.4609375 C0.34785156 4.97882812 -0.31601562 4.49671875 -1 4 C-0.67 2.68 -0.34 1.36 0 0 Z " fill="#1C1C1C" transform="translate(354,679)"/>
<path d="M0 0 C0.66 0 1.32 0 2 0 C0.66365029 4.00904913 -1.04937443 6.04937443 -4 9 C-5.25436187 11.63222962 -5.25436187 11.63222962 -6 14 C-7.32 13.67 -8.64 13.34 -10 13 C-9.26420788 11.53444684 -8.51074874 10.07775513 -7.75 8.625 C-7.33234375 7.81289063 -6.9146875 7.00078125 -6.484375 6.1640625 C-4.83730861 3.76281308 -3.61096489 3.15443489 -1 2 C-0.67 1.34 -0.34 0.68 0 0 Z " fill="#3A3B3A" transform="translate(460,785)"/>
<path d="M0 0 C0 3 0 3 -1.27734375 4.54296875 C-1.82519531 5.08566406 -2.37304688 5.62835937 -2.9375 6.1875 C-6.4398968 10.04425694 -6.81989587 12.86703242 -7 18 C-7.33 17.34 -7.66 16.68 -8 16 C-8.66 16 -9.32 16 -10 16 C-10 16.99 -10 17.98 -10 19 C-10.66 18.67 -11.32 18.34 -12 18 C-10.17301482 10.69205928 -5.4604995 5.04046107 0 0 Z " fill="#373737" transform="translate(508,724)"/>
<path d="M0 0 C1.14857926 3.44573777 1.03468706 6.15624655 0.9375 9.74609375 C0.90594346 12.01365909 0.90594346 12.01365909 1.625 14.16015625 C1.74875 14.76730469 1.8725 15.37445312 2 16 C1.34 16.66 0.68 17.32 0 18 C-2.83374078 12.33251843 -3.63223832 7.30267439 -4 1 C-3.34 1.66 -2.68 2.32 -2 3 C-1.34 2.01 -0.68 1.02 0 0 Z " fill="#424443" transform="translate(198,561)"/>
<path d="M0 0 C-0.4794463 4.21912747 -1.16625119 6.79663178 -4 10 C-5.32 9.67 -6.64 9.34 -8 9 C-6.53333333 3.5 -6.53333333 3.5 -4 1.125 C-2 0 -2 0 0 0 Z " fill="#AEAEAE" transform="translate(172,348)"/>
<path d="M0 0 C8.22338785 0.97958852 15.47115666 2.49900287 23 6 C23 6.33 23 6.66 23 7 C17.555 6.505 17.555 6.505 12 6 C12 5.34 12 4.68 12 4 C6.06 3.01 6.06 3.01 0 2 C0 1.34 0 0.68 0 0 Z " fill="#373737" transform="translate(438,225)"/>
<path d="M0 0 C0.66 0.33 1.32 0.66 2 1 C-5.12680628 5.68332984 -11.15783453 9.54135707 -20 9 C-17.16729926 6.16729926 -13.69847732 5.26623617 -10 3.9375 C-4.92066965 2.15740517 -4.92066965 2.15740517 0 0 Z " fill="#2A2B2B" transform="translate(478,540)"/>
<path d="M0 0 C0.66451172 0.08314453 1.32902344 0.16628906 2.01367188 0.25195312 C5.84019575 0.77048307 9.17574128 1.57766089 12.6875 3.1875 C9.6875 4.1875 9.6875 4.1875 7.125 3.75 C3.31123085 3.12592868 -0.19587243 3.24438888 -4.04296875 3.4453125 C-6.80418864 3.13164552 -7.6045225 2.31273585 -9.3125 0.1875 C-6.24811998 -1.34469001 -3.28371101 -0.46015779 0 0 Z " fill="#1B1B1B" transform="translate(487.3125,491.8125)"/>
<path d="M0 0 C0.66 0 1.32 0 2 0 C0.46920333 3.44429252 -1.61654706 6.09516673 -4 9 C-4.99 10.485 -4.99 10.485 -6 12 C-6.33 11.34 -6.66 10.68 -7 10 C-8.32 11.32 -9.64 12.64 -11 14 C-9.75363936 7.61240173 -5.83738096 4.85927316 -1 1 C-0.67 0.67 -0.34 0.34 0 0 Z " fill="#141414" transform="translate(193,319)"/>
<path d="M0 0 C0.33 1.32 0.66 2.64 1 4 C-5.6 4 -12.2 4 -19 4 C-19 3.01 -19 2.02 -19 1 C-16.58325776 0.97294692 -14.1668206 0.95313562 -11.75 0.9375 C-11.06808594 0.92912109 -10.38617188 0.92074219 -9.68359375 0.91210938 C-6.30657446 0.89571608 -3.22708361 0.94371232 0 2 C0 1.34 0 0.68 0 0 Z " fill="#3C3C3C" transform="translate(430,221)"/>
<path d="M0 0 C0.86625 0.185625 1.7325 0.37125 2.625 0.5625 C3.49125 0.376875 4.3575 0.19125 5.25 0 C7.625 -0.4375 7.625 -0.4375 10.625 1.5625 C3.82425959 3.46670731 -2.29423749 4.97100553 -9.375 4.5625 C-2.70416266 -0.49813523 -2.70416266 -0.49813523 0 0 Z " fill="#2B2C2C" transform="translate(186.375,614.4375)"/>
<path d="M0 0 C1.81455688 0.07069702 1.81455688 0.07069702 3.66577148 0.14282227 C5.62353516 0.21533203 5.62353516 0.21533203 7.62084961 0.28930664 C9.00952598 0.34583683 10.39819781 0.40247892 11.78686523 0.45922852 C13.17942544 0.51243399 14.5720035 0.56517448 15.96459961 0.61743164 C19.38472504 0.74760943 22.80459448 0.88259032 26.22436523 1.02172852 C26.22436523 1.35172852 26.22436523 1.68172852 26.22436523 2.02172852 C21.97510911 2.24767677 17.7250408 2.44943978 13.47436523 2.64672852 C12.26780273 2.71118164 11.06124023 2.77563477 9.81811523 2.84204102 C8.65795898 2.89360352 7.49780273 2.94516602 6.30249023 2.99829102 C5.23417969 3.05065918 4.16586914 3.10302734 3.06518555 3.15698242 C0.19493419 3.02032728 -1.35782141 2.51628403 -3.77563477 1.02172852 C-2.77563477 0.02172852 -2.77563477 0.02172852 0 0 Z " fill="#BBBBBB" transform="translate(269.775634765625,565.978271484375)"/>
<path d="M0 0 C1.45945288 0.08708669 2.91765868 0.19526907 4.375 0.3125 C5.59316406 0.39951172 5.59316406 0.39951172 6.8359375 0.48828125 C9 1 9 1 11 4 C10 5 10 5 7.93359375 5.09765625 C7.10988281 5.08605469 6.28617187 5.07445312 5.4375 5.0625 C4.61121094 5.05347656 3.78492188 5.04445313 2.93359375 5.03515625 C2.29550781 5.02355469 1.65742188 5.01195312 1 5 C0.67 3.35 0.34 1.7 0 0 Z " fill="#F5F5F5" transform="translate(495,495)"/>
<path d="M0 0 C4.31392226 0.4793247 6.16569547 1.7457985 9 5 C7.25 5.625 7.25 5.625 5 6 C4.4225 5.67 3.845 5.34 3.25 5 C0.65459275 3.84648567 -0.37316255 4.06288503 -3.125 4.5 C-5.043125 4.7475 -5.043125 4.7475 -7 5 C-7.66 4.34 -8.32 3.68 -9 3 C-4.545 2.505 -4.545 2.505 0 2 C0 1.34 0 0.68 0 0 Z " fill="#2E2E2E" transform="translate(505,497)"/>
<path d="M0 0 C0.66 0 1.32 0 2 0 C2.06058594 0.9178125 2.12117188 1.835625 2.18359375 2.78125 C2.62311242 9.218508 3.10530999 15.60935705 4 22 C1.50494038 19.50494038 1.64051624 18.32671112 1.375 14.875 C1.26285156 13.50988281 1.26285156 13.50988281 1.1484375 12.1171875 C1.07496094 11.06917969 1.07496094 11.06917969 1 10 C0.34 10 -0.32 10 -1 10 C-1.125 3.375 -1.125 3.375 0 0 Z " fill="#323232" transform="translate(410,595)"/>
<path d="M0 0 C2.04925793 1.85094265 3.72022502 3.40411563 4.90234375 5.921875 C5.0416938 8.88724398 3.96053026 10.65852927 2.5625 13.25 C2.08941406 14.14203125 1.61632812 15.0340625 1.12890625 15.953125 C0.75636719 16.62859375 0.38382812 17.3040625 0 18 C-0.33 17.34 -0.66 16.68 -1 16 C-0.67 15.01 -0.34 14.02 0 13 C0.06937062 10.77181559 0.08457084 8.54165476 0.0625 6.3125 C0.05347656 5.13300781 0.04445313 3.95351563 0.03515625 2.73828125 C0.02355469 1.83464844 0.01195313 0.93101562 0 0 Z " fill="#424242" transform="translate(83,555)"/>
<path d="M0 0 C0.556875 0.226875 1.11375 0.45375 1.6875 0.6875 C0.31423398 4.80729807 -2.39845092 7.73047546 -6.3125 9.6875 C-6.9725 9.0275 -7.6325 8.3675 -8.3125 7.6875 C-7.3225 6.3675 -6.3325 5.0475 -5.3125 3.6875 C-5.9725 3.3575 -6.6325 3.0275 -7.3125 2.6875 C-2.88173077 -0.38942308 -2.88173077 -0.38942308 0 0 Z " fill="#333333" transform="translate(260.3125,266.3125)"/>
<path d="M0 0 C3.66541254 5.4981188 4.34357529 12.47206957 4 19 C3.01 19 2.02 19 1 19 C0.15976812 14.64667264 -0.10770995 10.55557481 -0.0625 6.125 C-0.05347656 4.97257813 -0.04445312 3.82015625 -0.03515625 2.6328125 C-0.02355469 1.76398437 -0.01195312 0.89515625 0 0 Z " fill="#444444" transform="translate(202,602)"/>
<path d="M0 0 C0.99 0.33 1.98 0.66 3 1 C3.33 2.65 3.66 4.3 4 6 C3.360625 6.4125 2.72125 6.825 2.0625 7.25 C-0.20990931 9.17810487 -0.60196439 10.11424181 -1 13 C-1.66 12.67 -2.32 12.34 -3 12 C-2.74438677 9.6568787 -2.40729228 7.32156597 -2 5 C-1.34 4.67 -0.68 4.34 0 4 C0 2.68 0 1.36 0 0 Z " fill="#ADADAD" transform="translate(435,511)"/>
<path d="M0 0 C-1.33333333 0.66666667 -2.66666667 1.33333333 -4 2 C-4.61359375 2.33128906 -5.2271875 2.66257812 -5.859375 3.00390625 C-8.08299428 4.0386196 -10.10095658 4.57365382 -12.5 5.0625 C-15.3510435 5.65321278 -18.1795996 6.2756699 -21 7 C-17.95009464 3.46006188 -15.59528544 2.27887942 -11.0625 1.25 C-10.04285156 1.00765625 -9.02320313 0.7653125 -7.97265625 0.515625 C-5.23784937 0.0412564 -2.76693912 -0.10191304 0 0 Z " fill="#464646" transform="translate(477,492)"/>
<path d="M0 0 C4.48320733 1.36986891 6.2128011 3.31370468 9 7 C11.12603185 8.76323505 11.12603185 8.76323505 13 10 C4.06443719 8.46818923 4.06443719 8.46818923 1.1875 4.5 C0 2 0 2 0 0 Z " fill="#BFBFBF" transform="translate(477,236)"/>
<path d="M0 0 C0.33 0 0.66 0 1 0 C1.33 6.6 1.66 13.2 2 20 C1.01 20 0.02 20 -1 20 C-1.11044961 13.26257354 -0.70132913 6.70019789 0 0 Z " fill="#232323" transform="translate(229,671)"/>
<path d="M0 0 C0.33 0 0.66 0 1 0 C1.29341888 5.67276511 1.00559652 8.99067246 -2 14 C-2.33 14 -2.66 14 -3 14 C-3.19263454 9.18413661 -2.81361417 5.48069384 -1 1 C-0.67 0.67 -0.34 0.34 0 0 Z " fill="#2D2D2D" transform="translate(564,566)"/>
<path d="M0 0 C0.78821819 2.29543427 1.13558044 3.58008982 0.37915039 5.92285156 C0.03875732 6.5722168 -0.30163574 7.22158203 -0.65234375 7.890625 C-1.01650391 8.59960938 -1.38066406 9.30859375 -1.75585938 10.0390625 C-2.14580078 10.76867187 -2.53574219 11.49828125 -2.9375 12.25 C-3.32357422 12.99507813 -3.70964844 13.74015625 -4.10742188 14.5078125 C-5.06090166 16.34414394 -6.02905677 18.17284207 -7 20 C-8.16209423 16.51371731 -7.88616059 16.13629782 -6.34765625 12.98828125 C-5.98349609 12.23095703 -5.61933594 11.47363281 -5.24414062 10.69335938 C-4.85419922 9.90767578 -4.46425781 9.12199219 -4.0625 8.3125 C-3.67642578 7.51521484 -3.29035156 6.71792969 -2.89257812 5.89648438 C-1.93709398 3.92653557 -0.97267894 1.96150061 0 0 Z " fill="#2A2A2A" transform="translate(131,417)"/>
<path d="M0 0 C0.99 0 1.98 0 3 0 C3.33 4.29 3.66 8.58 4 13 C2 10 2 10 2 7 C1.34 7 0.68 7 0 7 C-0.38133299 5.0085944 -0.71325582 3.00720923 -1 1 C-0.67 0.67 -0.34 0.34 0 0 Z " fill="#C4C4C4" transform="translate(549,306)"/>
<path d="M0 0 C0.33 0.66 0.66 1.32 1 2 C3.02463255 2.65213292 3.02463255 2.65213292 5 3 C4.01 3.495 4.01 3.495 3 4 C3 4.99 3 5.98 3 7 C3.99 7 4.98 7 6 7 C6.33 6.34 6.66 5.68 7 5 C7.33 6.32 7.66 7.64 8 9 C6.35 9 4.7 9 3 9 C2.67 8.01 2.34 7.02 2 6 C1.01 6.33 0.02 6.66 -1 7 C-0.67 4.69 -0.34 2.38 0 0 Z " fill="#888888" transform="translate(522,508)"/>
<path d="M0 0 C0.66 0 1.32 0 2 0 C0.62262427 4.01734589 -1.33026125 6.72741701 -4 10 C-4.33 10.99 -4.66 11.98 -5 13 C-5.66 13 -6.32 13 -7 13 C-7 11.02 -7 9.04 -7 7 C-6.01 6.67 -5.02 6.34 -4 6 C-2.65729179 4.00628175 -1.32346506 2.0065438 0 0 Z " fill="#1A1A1A" transform="translate(481,759)"/>
<path d="M0 0 C3.66747938 1.83373969 4.74129801 6.26585077 6 10 C6.29454579 12.45901107 6.21136649 14.51644372 6 17 C5.34 16.67 4.68 16.34 4 16 C3.19954337 13.30941402 2.5045341 10.66781273 1.875 7.9375 C1.69324219 7.17888672 1.51148438 6.42027344 1.32421875 5.63867188 C0.87543416 3.76086265 0.43676664 1.88064085 0 0 Z " fill="#484948" transform="translate(213,647)"/>
<path d="M0 0 C1.41623216 -0.05447047 2.83308191 -0.09300508 4.25 -0.125 C5.03890625 -0.14820313 5.8278125 -0.17140625 6.640625 -0.1953125 C9.20731941 0.0171622 10.7916067 0.71345895 13 2 C12.67 2.99 12.34 3.98 12 5 C11.01 5 10.02 5 9 5 C9 4.34 9 3.68 9 3 C8.34 2.67 7.68 2.34 7 2 C7 2.66 7 3.32 7 4 C5.68 3.67 4.36 3.34 3 3 C3.33 2.34 3.66 1.68 4 1 C2.68 0.67 1.36 0.34 0 0 Z " fill="#141414" transform="translate(577,596)"/>
<path d="M0 0 C0 0.99 0 1.98 0 3 C-2 4.6875 -2 4.6875 -4 6 C-2.84826645 3.53199953 -1.95216435 1.95216435 0 0 Z M0 7 C-1.4001116 9.8002232 -3.26572551 10.56776098 -6 12 C-6.99 12 -7.98 12 -9 12 C-6.5571003 7.23634558 -6.5571003 7.23634558 -3.9375 6.125 C-2 6 -2 6 0 7 Z " fill="#E1E1E1" transform="translate(196,319)"/>
<path d="M0 0 C0 3.79330832 -1.17710681 5.01684801 -3.375 8.0625 C-4.00148437 8.94035156 -4.62796875 9.81820313 -5.2734375 10.72265625 C-7 13 -7 13 -9 15 C-8.62960983 8.57990379 -8.62960983 8.57990379 -5.625 5.8125 C-4.325625 4.9153125 -4.325625 4.9153125 -3 4 C-1.23676495 1.87396815 -1.23676495 1.87396815 0 0 Z " fill="#404040" transform="translate(181,333)"/>
<path d="M0 0 C-0.99 0.66 -1.98 1.32 -3 2 C-3.99 3.485 -3.99 3.485 -5 5 C-5 4.01 -5 3.02 -5 2 C-9.29 1.67 -13.58 1.34 -18 1 C-18 0.67 -18 0.34 -18 0 C-11.96496237 -1.50875941 -6.10261631 -0.64186094 0 0 Z " fill="#323333" transform="translate(372,824)"/>
<path d="M0 0 C1.07310858 3.27185553 0.89263102 5.42947592 0.0625 8.75 C-0.13214844 9.54921875 -0.32679687 10.3484375 -0.52734375 11.171875 C-0.76130859 12.07679688 -0.76130859 12.07679688 -1 13 C-1.66 13 -2.32 13 -3 13 C-3.66 15.31 -4.32 17.62 -5 20 C-5.66 19.01 -6.32 18.02 -7 17 C-6.401875 16.05125 -5.80375 15.1025 -5.1875 14.125 C-2.61734424 9.67067311 -1.31333726 4.94491377 0 0 Z " fill="#787878" transform="translate(74,570)"/>
<path d="M0 0 C1.94723595 2.92085393 2.55175352 4.59332678 3 8 C2.67 8.33 2.34 8.66 2 9 C1.76572222 11.01594582 1.58663876 13.038474 1.4375 15.0625 C1.35371094 16.16722656 1.26992187 17.27195312 1.18359375 18.41015625 C1.12300781 19.26480469 1.06242188 20.11945312 1 21 C0.67 21 0.34 21 0 21 C0 14.07 0 7.14 0 0 Z " fill="#131313" transform="translate(193,533)"/>
<path d="M0 0 C1.47661732 2.95323463 0.62745701 5.05199818 -0.19921875 8.15625 C-1 10 -1 10 -3.4375 11.5 C-6 12 -6 12 -9 12 C-8.67 11.01 -8.34 10.02 -8 9 C-6.35 9 -4.7 9 -3 9 C-2.87625 8.071875 -2.7525 7.14375 -2.625 6.1875 C-2 3 -2 3 0 0 Z " fill="#717171" transform="translate(120,441)"/>
<path d="M0 0 C0.99 0.33 1.98 0.66 3 1 C3.66 4.3 4.32 7.6 5 11 C4.01 11 3.02 11 2 11 C1.67 10.67 1.34 10.34 1 10 C1.020625 8.865625 1.04125 7.73125 1.0625 6.5625 C1.41164028 2.94857727 1.41164028 2.94857727 -1 1 C-0.67 0.67 -0.34 0.34 0 0 Z " fill="#636363" transform="translate(345,539)"/>
<path d="M0 0 C0.66 0 1.32 0 2 0 C2.75 3.25 2.75 3.25 3 7 C1.0625 9.4375 1.0625 9.4375 -1 11 C-1.66 10.67 -2.32 10.34 -3 10 C-2.34 9.01 -1.68 8.02 -1 7 C-0.60612212 4.67612053 -0.26513915 2.34206251 0 0 Z " fill="#3C3C3C" transform="translate(416,669)"/>
<path d="M0 0 C0.66 0.66 1.32 1.32 2 2 C1.63910592 5.48864279 -0.1410422 8.09032693 -2 11 C-2.99 10.67 -3.98 10.34 -5 10 C-3.35 6.7 -1.7 3.4 0 0 Z " fill="#252525" transform="translate(67,588)"/>
<path d="M0 0 C1.7015625 0.2475 1.7015625 0.2475 3.4375 0.5 C5.71132519 0.85632203 5.71132519 0.85632203 8 1 C8 2.98 8 4.96 8 7 C7.01 6.67 6.02 6.34 5 6 C4.67 5.34 4.34 4.68 4 4 C3.01 3.67 2.02 3.34 1 3 C0.67 3.66 0.34 4.32 0 5 C-0.99 4.34 -1.98 3.68 -3 3 C-2.01 3 -1.02 3 0 3 C0 2.01 0 1.02 0 0 Z " fill="#7B7B7B" transform="translate(340,555)"/>
<path d="M0 0 C3.3 0 6.6 0 10 0 C6.90698521 1.54650739 4.20588632 2.67691298 0.9375 3.6875 C0.08027344 3.95949219 -0.77695312 4.23148438 -1.66015625 4.51171875 C-4 5 -4 5 -7 4 C-4.69 3.34 -2.38 2.68 0 2 C0 1.34 0 0.68 0 0 Z " fill="#2A2A2A" transform="translate(264,515)"/>
<path d="M0 0 C1 3 1 3 -0.25 6.625 C-2 10 -2 10 -5 11 C-5.33 9.35 -5.66 7.7 -6 6 C-5.34 6 -4.68 6 -4 6 C-3.67 5.34 -3.34 4.68 -3 4 C-2.34 4 -1.68 4 -1 4 C-0.67 2.68 -0.34 1.36 0 0 Z " fill="#A4A4A4" transform="translate(112,462)"/>
<path d="M0 0 C0.99 0.33 1.98 0.66 3 1 C2.47599609 1.90492188 2.47599609 1.90492188 1.94140625 2.828125 C1.48636719 3.62734375 1.03132812 4.4265625 0.5625 5.25 C0.11003906 6.03890625 -0.34242188 6.8278125 -0.80859375 7.640625 C-1.89311602 9.78833468 -2.53148716 11.65205061 -3 14 C-3.66 14 -4.32 14 -5 14 C-3.45730076 9.27934033 -1.92205381 4.58335908 0 0 Z " fill="#282828" transform="translate(139,399)"/>
<path d="M0 0 C0.33 0 0.66 0 1 0 C1.33 2.64 1.66 5.28 2 8 C2.99 7.67 3.98 7.34 5 7 C3.46126823 10.71860179 2.52488612 11.35633541 -1 14 C-0.67 9.38 -0.34 4.76 0 0 Z " fill="#212121" transform="translate(159,354)"/>
<path d="M0 0 C2.18307032 2.18307032 2.64346336 3.47835047 3.5625 6.375 C3.81128906 7.14585937 4.06007812 7.91671875 4.31640625 8.7109375 C4.93923609 10.79652769 5.49266953 12.88370718 6 15 C5.01 15 4.02 15 3 15 C2.49564306 13.0636296 1.99666126 11.12585854 1.5 9.1875 C1.2215625 8.10855469 0.943125 7.02960937 0.65625 5.91796875 C0 3 0 3 0 0 Z " fill="#212121" transform="translate(219,664)"/>
<path d="M0 0 C1.09570312 0.00902344 2.19140625 0.01804687 3.3203125 0.02734375 C4.16335937 0.03894531 5.00640625 0.05054688 5.875 0.0625 C5.875 0.3925 5.875 0.7225 5.875 1.0625 C1.001739 2.6537689 -2.93290596 3.27442221 -8.125 3.0625 C-8.125 2.4025 -8.125 1.7425 -8.125 1.0625 C-5.36047967 -0.31976016 -3.0788637 -0.03275387 0 0 Z " fill="#1E1D1D" transform="translate(127.125,620.9375)"/>
<path d="M0 0 C1.32 0 2.64 0 4 0 C4 0.66 4 1.32 4 2 C6.31 2.33 8.62 2.66 11 3 C11 3.66 11 4.32 11 5 C8.36 5 5.72 5 3 5 C2.67 4.01 2.34 3.02 2 2 C1.34 2 0.68 2 0 2 C0 1.34 0 0.68 0 0 Z " fill="#424242" transform="translate(570,594)"/>
<path d="M0 0 C3.48670834 1.1094072 6.77484237 2.26337666 10 4 C10 4.99 10 5.98 10 7 C9.34 7 8.68 7 8 7 C8 6.34 8 5.68 8 5 C6.68 4.67 5.36 4.34 4 4 C4 3.34 4 2.68 4 2 C3.01 2.495 3.01 2.495 2 3 C1.34786708 5.02463255 1.34786708 5.02463255 1 7 C0.34 6.67 -0.32 6.34 -1 6 C-0.67 4.02 -0.34 2.04 0 0 Z " fill="#636363" transform="translate(328,518)"/>
<path d="M0 0 C2 2 2 2 2.1953125 4.3828125 C2.17210937 5.28773438 2.14890625 6.19265625 2.125 7.125 C2.10695313 8.03507813 2.08890625 8.94515625 2.0703125 9.8828125 C2.03550781 10.93082031 2.03550781 10.93082031 2 12 C1.01 12 0.02 12 -1 12 C-1.08159574 7.83861737 -0.98248524 4.0527516 0 0 Z " fill="#737373" transform="translate(425,534)"/>
<path d="M0 0 C0.66 0.66 1.32 1.32 2 2 C1.38125 2.350625 0.7625 2.70125 0.125 3.0625 C-2.75554253 5.68887702 -3.15462838 8.26627537 -4 12 C-4.66 12 -5.32 12 -6 12 C-5.73781251 7.5428126 -5.42288711 5.48477302 -2.4375 2.0625 C-1.633125 1.381875 -0.82875 0.70125 0 0 Z " fill="#717171" transform="translate(259,538)"/>
<path d="M0 0 C0.66 0.33 1.32 0.66 2 1 C1.01 2.485 1.01 2.485 0 4 C-0.66 4 -1.32 4 -2 4 C-2.33 5.32 -2.66 6.64 -3 8 C-4.32 8 -5.64 8 -7 8 C-7 7.01 -7 6.02 -7 5 C-5.46875 3.61328125 -5.46875 3.61328125 -3.5 2.3125 C-2.8503125 1.87550781 -2.200625 1.43851562 -1.53125 0.98828125 C-1.0259375 0.66214844 -0.520625 0.33601563 0 0 Z " fill="#3B3B3B" transform="translate(273,256)"/>
<path d="M0 0 C1.98 0 3.96 0 6 0 C5 3 5 3 3 4 C1.00039988 4.039992 -1.00047242 4.04346799 -3 4 C-2.67 3.34 -2.34 2.68 -2 2 C-1.34 2 -0.68 2 0 2 C0 1.34 0 0.68 0 0 Z " fill="#0C0C0C" transform="translate(402,780)"/>
<path d="M0 0 C1.98 0 3.96 0 6 0 C4.02 2.97 4.02 2.97 2 6 C0.68 5.34 -0.64 4.68 -2 4 C-1.34 2.68 -0.68 1.36 0 0 Z " fill="#383C3B" transform="translate(171,619)"/>
<path d="M0 0 C1.125 4.75 1.125 4.75 0 7 C-0.66 7 -1.32 7 -2 7 C-2.66 6.01 -3.32 5.02 -4 4 C-4.99 3.34 -5.98 2.68 -7 2 C-2.25 0 -2.25 0 0 0 Z " fill="#0F0F0F" transform="translate(201,612)"/>
<path d="M0 0 C-4.33664919 3.11696661 -7.80408388 3.55966813 -13 4 C-10.59615787 0.69471707 -7.61485854 0.1623116 -3.83984375 -0.765625 C-2 -1 -2 -1 0 0 Z " fill="#212121" transform="translate(654,584)"/>
<path d="M0 0 C0.66 0 1.32 0 2 0 C2.8125 3.25 2.8125 3.25 3 7 C0.5625 9.4375 0.5625 9.4375 -2 11 C-2 9.35 -2 7.7 -2 6 C-1.01 5.67 -0.02 5.34 1 5 C0.67 3.35 0.34 1.7 0 0 Z " fill="#202020" transform="translate(415,554)"/>
<path d="M0 0 C-0.66 1.98 -1.32 3.96 -2 6 C-3.65 5.67 -5.3 5.34 -7 5 C-7 4.34 -7 3.68 -7 3 C-2.61538462 0 -2.61538462 0 0 0 Z " fill="#1D201F" transform="translate(242,550)"/>
<path d="M0 0 C0.99 0.33 1.98 0.66 3 1 C2.67 3.64 2.34 6.28 2 9 C1.01 9.33 0.02 9.66 -1 10 C-1 9.01 -1 8.02 -1 7 C-1.33 6.01 -1.66 5.02 -2 4 C-1.0625 1.8125 -1.0625 1.8125 0 0 Z " fill="#515151" transform="translate(112,459)"/>
<path d="M0 0 C0.66 0 1.32 0 2 0 C2 0.99 2 1.98 2 3 C2.66 3.33 3.32 3.66 4 4 C4.33 4.66 4.66 5.32 5 6 C2.36 6.33 -0.28 6.66 -3 7 C-3 6.34 -3 5.68 -3 5 C-2.34 4.67 -1.68 4.34 -1 4 C-0.34786708 1.97536745 -0.34786708 1.97536745 0 0 Z " fill="#4A4A4A" transform="translate(295,236)"/>
<path d="M0 0 C-3.42346555 3.14958831 -6.44262737 3.56179109 -11 4 C-11 3.34 -11 2.68 -11 2 C-7.17679443 0.57741188 -4.08718695 -0.24042276 0 0 Z " fill="#323232" transform="translate(321,564)"/>
<path d="M0 0 C3 1.8125 3 1.8125 6 4 C6 4.99 6 5.98 6 7 C3.525 6.01 3.525 6.01 1 5 C0.67 5.66 0.34 6.32 0 7 C0 4.69 0 2.38 0 0 Z " fill="#323232" transform="translate(272,758)"/>
<path d="M0 0 C-3.11910856 1.79275866 -5.67682428 2.34290718 -9.25 2.625 C-10.14203125 2.69976563 -11.0340625 2.77453125 -11.953125 2.8515625 C-12.62859375 2.90054688 -13.3040625 2.94953125 -14 3 C-10.12243665 -0.87756335 -5.14086064 -1.55783656 0 0 Z " fill="#3E3E3E" transform="translate(420,744)"/>
<path d="M0 0 C0.33 0 0.66 0 1 0 C1.22162329 1.62324086 1.42689803 3.248721 1.625 4.875 C1.74101562 5.77992188 1.85703125 6.68484375 1.9765625 7.6171875 C1.98429688 8.40351562 1.99203125 9.18984375 2 10 C1.34 10.66 0.68 11.32 0 12 C-0.66 9.69 -1.32 7.38 -2 5 C-1.34 4.67 -0.68 4.34 0 4 C0 2.68 0 1.36 0 0 Z " fill="#ACACAC" transform="translate(212,637)"/>
<path d="M0 0 C0.33 1.32 0.66 2.64 1 4 C1.66 4 2.32 4 3 4 C3.33 2.68 3.66 1.36 4 0 C4 1.65 4 3.3 4 5 C2.02 5.99 0.04 6.98 -2 8 C-2.20086443 4.28400809 -2.1519437 3.22791555 0 0 Z " fill="#1A1A1A" transform="translate(208,636)"/>
<path d="M0 0 C0.33 0 0.66 0 1 0 C1.17835515 4.54805635 0.99785435 7.8794254 -1 12 C-2.24079227 8.27762318 -1.6953965 5.82468076 -1 2 C-0.67 1.34 -0.34 0.68 0 0 Z " fill="#131313" transform="translate(88,550)"/>
<path d="M0 0 C2.02054804 1.64169528 4.02043058 3.30911778 6 5 C6 5.33 6 5.66 6 6 C4.02 6 2.04 6 0 6 C-1.125 2.25 -1.125 2.25 0 0 Z " fill="#343434" transform="translate(247,719)"/>
<path d="M0 0 C4.92127034 -0.16682272 8.50343896 -0.24828052 13 2 C8.89208635 3.54046762 5.21433421 2.75996191 1 2 C0.67 1.34 0.34 0.68 0 0 Z " fill="#565656" transform="translate(299,520)"/>
<path d="M0 0 C0 3.96 0 7.92 0 12 C-0.33 12 -0.66 12 -1 12 C-1.33 9.36 -1.66 6.72 -2 4 C-2.66 4.66 -3.32 5.32 -4 6 C-4 4.35 -4 2.7 -4 1 C-1 0 -1 0 0 0 Z " fill="#CDD1D0" transform="translate(651,461)"/>
<path d="M0 0 C1.125 1.5625 1.125 1.5625 2 4 C1.125 7.75 1.125 7.75 0 11 C-0.66 10.67 -1.32 10.34 -2 10 C-2 6.09567131 -1.31626692 3.61973402 0 0 Z " fill="#525252" transform="translate(157,364)"/>
<path d="M0 0 C0 3 0 3 -1.2421875 4.60546875 C-1.78101563 5.12753906 -2.31984375 5.64960938 -2.875 6.1875 C-3.40867188 6.71730469 -3.94234375 7.24710937 -4.4921875 7.79296875 C-6 9 -6 9 -8 9 C-7.8125 7.1875 -7.8125 7.1875 -7 5 C-4.5625 3.375 -4.5625 3.375 -2 2 C-1.34 1.34 -0.68 0.68 0 0 Z " fill="#8F8F8F" transform="translate(216,298)"/>
<path d="M0 0 C0.99 0 1.98 0 3 0 C1.62845496 2.95409701 0.01136276 5.44008376 -2 8 C-2.66 7.67 -3.32 7.34 -4 7 C-1.125 1.125 -1.125 1.125 0 0 Z " fill="#0B0B0B" transform="translate(251,275)"/>
<path d="M0 0 C2.33944736 0.28730055 4.6739143 0.61936779 7 1 C4.31158141 3.25245881 2.35358125 4.88213958 -1 6 C-1 5.01 -1 4.02 -1 3 C-0.34 2.67 0.32 2.34 1 2 C0.34 1.67 -0.32 1.34 -1 1 C-0.67 0.67 -0.34 0.34 0 0 Z " fill="#9D9D9D" transform="translate(302,236)"/>
<path d="M0 0 C0.66 0 1.32 0 2 0 C2.33 2.31 2.66 4.62 3 7 C2.01 7.495 2.01 7.495 1 8 C0.34 5.69 -0.32 3.38 -1 1 C-0.67 0.67 -0.34 0.34 0 0 Z " fill="#222222" transform="translate(292,780)"/>
<path d="M0 0 C5.28 0 10.56 0 16 0 C16 0.33 16 0.66 16 1 C14.72125 1.144375 13.4425 1.28875 12.125 1.4375 C9.74307106 1.70642746 8.15547309 1.92226346 6 3 C3.98072489 2.39421747 1.97746603 1.73080266 0 1 C0 0.67 0 0.34 0 0 Z " fill="#191B1A" transform="translate(94,620)"/>
<path d="M0 0 C1.65 0.33 3.3 0.66 5 1 C5.33 1.99 5.66 2.98 6 4 C3 6 3 6 0 6 C-1 3 -1 3 0 0 Z " fill="#868688" transform="translate(68,617)"/>
<path d="M0 0 C0.75 1.6875 0.75 1.6875 1 4 C-0.875 6.625 -0.875 6.625 -3 9 C-3.33 9.66 -3.66 10.32 -4 11 C-4.66 11 -5.32 11 -6 11 C-4.54955729 6.89041233 -2.48889248 3.56741255 0 0 Z " fill="#3F4040" transform="translate(246,554)"/>
<path d="M0 0 C-0.39803561 2.88575819 -0.79009069 3.82189513 -3.0625 5.75 C-3.701875 6.1625 -4.34125 6.575 -5 7 C-5.1875 4.625 -5.1875 4.625 -5 2 C-2 0 -2 0 0 0 Z " fill="#141414" transform="translate(444,511)"/>
<path d="M0 0 C0.66 0.99 1.32 1.98 2 3 C-0.52956528 6.0916909 -3.22454612 6.90931332 -7 8 C-6.02133662 6.85373678 -5.04205413 5.70800212 -4.0625 4.5625 C-3.51722656 3.92441406 -2.97195313 3.28632813 -2.41015625 2.62890625 C-1.63204305 1.73008851 -0.84063472 0.84063472 0 0 Z " fill="#C8C8C8" transform="translate(264,265)"/>
<path d="M0 0 C4.29 0 8.58 0 13 0 C13 0.33 13 0.66 13 1 C8.71 1.66 4.42 2.32 0 3 C0 2.01 0 1.02 0 0 Z " fill="#131313" transform="translate(411,222)"/>
<path d="M0 0 C0.99 0.33 1.98 0.66 3 1 C3 3.31 3 5.62 3 8 C1.35 7.67 -0.3 7.34 -2 7 C-1.01 6.67 -0.02 6.34 1 6 C0.67 4.02 0.34 2.04 0 0 Z " fill="#999999" transform="translate(224,673)"/>
<path d="M0 0 C0 0.99 0 1.98 0 3 C-0.639375 3.12375 -1.27875 3.2475 -1.9375 3.375 C-2.618125 3.58125 -3.29875 3.7875 -4 4 C-4.33 4.66 -4.66 5.32 -5 6 C-5.33 4.68 -5.66 3.36 -6 2 C-4.02 1.34 -2.04 0.68 0 0 Z " fill="#363636" transform="translate(65,615)"/>
<path d="M0 0 C0.66 0.33 1.32 0.66 2 1 C0.02 3.31 -1.96 5.62 -4 8 C-4.33 7.34 -4.66 6.68 -5 6 C-2.59016393 1.29508197 -2.59016393 1.29508197 0 0 Z " fill="#111111" transform="translate(169,349)"/>
<path d="M0 0 C0.66 0.33 1.32 0.66 2 1 C1.67 2.65 1.34 4.3 1 6 C0.34 5.34 -0.32 4.68 -1 4 C-2.32 5.32 -3.64 6.64 -5 8 C-3.375 2.25 -3.375 2.25 0 0 Z " fill="#424242" transform="translate(187,325)"/>
<path d="M0 0 C0 0.66 0 1.32 0 2 C-1.11375 2.309375 -2.2275 2.61875 -3.375 2.9375 C-6.7945155 3.82326483 -6.7945155 3.82326483 -9 5 C-8.6875 3.0625 -8.6875 3.0625 -8 1 C-5.07175348 0.02391783 -3.04386724 -0.08226668 0 0 Z " fill="#010302" transform="translate(377,824)"/>
<path d="M0 0 C0 0.66 0 1.32 0 2 C-6.625 3.25 -6.625 3.25 -10 1 C-6.59437148 0.22157062 -3.49234244 -0.09978121 0 0 Z " fill="#0A0B0B" transform="translate(417,818)"/>
<path d="M0 0 C0.66 0.33 1.32 0.66 2 1 C0.875 2.9375 0.875 2.9375 -1 5 C-4.1875 5.75 -4.1875 5.75 -7 6 C-7 5.34 -7 4.68 -7 4 C-6.030625 3.525625 -5.06125 3.05125 -4.0625 2.5625 C-1.19522563 1.29806053 -1.19522563 1.29806053 0 0 Z " fill="#3A3A3A" transform="translate(267,524)"/>
<path d="M0 0 C1.46726798 3.81489674 0.43336419 6.29011622 -1 10 C-1.33 10 -1.66 10 -2 10 C-2.1953125 3.9453125 -2.1953125 3.9453125 -2 2 C-1.34 1.34 -0.68 0.68 0 0 Z " fill="#424242" transform="translate(194,516)"/>
<path d="M0 0 C2.97 0.495 2.97 0.495 6 1 C5.34 2.32 4.68 3.64 4 5 C3.67 4.34 3.34 3.68 3 3 C1.68 3 0.36 3 -1 3 C-0.67 2.01 -0.34 1.02 0 0 Z " fill="#232323" transform="translate(262,262)"/>
<path d="M0 0 C-3.44069624 2.29379749 -4.72290301 3 -9 3 C-9 2.34 -9 1.68 -9 1 C-3.375 -1.125 -3.375 -1.125 0 0 Z " fill="#121212" transform="translate(340,226)"/>
<path d="M0 0 C0 1.65 0 3.3 0 5 C-1.65 5.33 -3.3 5.66 -5 6 C-2.84615385 0 -2.84615385 0 0 0 Z " fill="#7A7A7A" transform="translate(412,683)"/>
<path d="M0 0 C0.66 0.33 1.32 0.66 2 1 C2 1.66 2 2.32 2 3 C2.66 3.33 3.32 3.66 4 4 C1.69 4.33 -0.62 4.66 -3 5 C-2.01 3.35 -1.02 1.7 0 0 Z " fill="#515152" transform="translate(66,620)"/>
<path d="M0 0 C0.66 0 1.32 0 2 0 C2 2.31 2 4.62 2 7 C1.34 7 0.68 7 0 7 C-0.33 7.99 -0.66 8.98 -1 10 C-1.125 3.375 -1.125 3.375 0 0 Z " fill="#545454" transform="translate(410,595)"/>
<path d="M0 0 C0.66 0 1.32 0 2 0 C1.75 2.875 1.75 2.875 1 6 C-1.0625 7.375 -1.0625 7.375 -3 8 C-3 6.68 -3 5.36 -3 4 C-2.34 3.67 -1.68 3.34 -1 3 C-0.67 2.01 -0.34 1.02 0 0 Z " fill="#ADADAD" transform="translate(573,581)"/>
<path d="M0 0 C0 0.99 0 1.98 0 3 C-0.66 3 -1.32 3 -2 3 C-2.33 3.99 -2.66 4.98 -3 6 C-3.99 5.67 -4.98 5.34 -6 5 C-5.34 5 -4.68 5 -4 5 C-4.33 3.68 -4.66 2.36 -5 1 C-2 0 -2 0 0 0 Z " fill="#C8C9C8" transform="translate(666,580)"/>
<path d="M0 0 C-0.33 1.65 -0.66 3.3 -1 5 C-2.65 4.67 -4.3 4.34 -6 4 C-2.25 0 -2.25 0 0 0 Z " fill="#121212" transform="translate(341,553)"/>
<path d="M0 0 C1.98 0.99 1.98 0.99 4 2 C3 5 3 5 0 7 C0 4.69 0 2.38 0 0 Z " fill="#E2E2E2" transform="translate(428,527)"/>
<path d="M0 0 C0.33 0 0.66 0 1 0 C1 1.65 1 3.3 1 5 C1.99 5 2.98 5 4 5 C3.34 6.32 2.68 7.64 2 9 C1.34 9 0.68 9 0 9 C0 6.03 0 3.06 0 0 Z " fill="#585B5A" transform="translate(570,451)"/>
<path d="M0 0 C0.99 0 1.98 0 3 0 C1.63016497 3.16115776 1.0109362 3.9927092 -2 6 C-2.33 5.34 -2.66 4.68 -3 4 C-1.6875 2 -1.6875 2 0 0 Z " fill="#F0F0F0" transform="translate(252,270)"/>
<path d="M0 0 C3.65316671 1.24976756 4.78065836 1.67098753 7 5 C5.68 5.33 4.36 5.66 3 6 C0 2.25 0 2.25 0 0 Z " fill="#232323" transform="translate(477,236)"/>
<path d="M0 0 C0.66 0 1.32 0 2 0 C1.38722388 2.96175123 0.74627478 4.38058783 -1 7 C-1.66 7 -2.32 7 -3 7 C-1.125 2.25 -1.125 2.25 0 0 Z " fill="#363636" transform="translate(523,697)"/>
<path d="M0 0 C-0.33 0.99 -0.66 1.98 -1 3 C-3.31 2.67 -5.62 2.34 -8 2 C-5.14066998 -0.85933002 -3.8625627 -1.2875209 0 0 Z " fill="#68686A" transform="translate(79,623)"/>
<path d="M0 0 C0.66 0 1.32 0 2 0 C2.625 2.875 2.625 2.875 3 6 C2.34 6.66 1.68 7.32 1 8 C0.67 5.36 0.34 2.72 0 0 Z " fill="#CDCDCD" transform="translate(554,600)"/>
<path d="M0 0 C1.85772162 0.08984301 3.71247985 0.24611861 5.5625 0.4375 C7.08037109 0.59025391 7.08037109 0.59025391 8.62890625 0.74609375 C9.80259766 0.87177734 9.80259766 0.87177734 11 1 C11 1.33 11 1.66 11 2 C9.37675914 2.22162329 7.751279 2.42689803 6.125 2.625 C4.76761719 2.79902344 4.76761719 2.79902344 3.3828125 2.9765625 C2.59648437 2.98429688 1.81015625 2.99203125 1 3 C0.34 2.34 -0.32 1.68 -1 1 C-0.67 0.67 -0.34 0.34 0 0 Z " fill="#191919" transform="translate(267,566)"/>
<path d="M0 0 C0.66 0 1.32 0 2 0 C1.29445932 3.66881155 -0.27735506 6.70450534 -2 10 C-3 8 -3 8 -2.44140625 6.0546875 C-2.15136719 5.33539062 -1.86132812 4.61609375 -1.5625 3.875 C-1.27503906 3.15054688 -0.98757812 2.42609375 -0.69140625 1.6796875 C-0.46324219 1.12539063 -0.23507813 0.57109375 0 0 Z " fill="#373737" transform="translate(85,563)"/>
<path d="M0 0 C0.66 0.99 1.32 1.98 2 3 C2.66 2.67 3.32 2.34 4 2 C4 2.99 4 3.98 4 5 C1.5 7.1875 1.5 7.1875 -1 9 C-0.67 6.03 -0.34 3.06 0 0 Z " fill="#BFBFBF" transform="translate(564,558)"/>
<path d="M0 0 C0.66 0.33 1.32 0.66 2 1 C-0.35277269 3.72426311 -2.62496331 4.8141763 -6 6 C-3.375 1.125 -3.375 1.125 0 0 Z " fill="#0F0F0F" transform="translate(273,521)"/>
<path d="M0 0 C2.875 -0.125 2.875 -0.125 6 0 C6.66 0.66 7.32 1.32 8 2 C6.35 2.33 4.7 2.66 3 3 C3 3.66 3 4.32 3 5 C2.34 5 1.68 5 1 5 C0.67 3.35 0.34 1.7 0 0 Z " fill="#DCDCDC" transform="translate(495,495)"/>
</svg>
